<?xml version="1.0" standalone="no"?>
<!DOCTYPE svg PUBLIC "-//W3C//DTD SVG 20010904//EN"
 "http://www.w3.org/TR/2001/REC-SVG-20010904/DTD/svg10.dtd">
<svg version="1.0" xmlns="http://www.w3.org/2000/svg"
 width="1280.000000pt" height="640.000000pt" viewBox="0 0 1280.000000 640.000000"
 preserveAspectRatio="xMidYMid meet">
<metadata>
Created by potrace 1.15, written by Peter Selinger 2001-2017
</metadata>
<g transform="translate(0.000000,640.000000) scale(0.100000,-0.100000)"
fill="#000000" stroke="none">
<path d="M4938 4035 c-197 -39 -311 -156 -264 -270 16 -37 16 -37 -7 -31 -49
13 -307 27 -387 21 -209 -16 -428 -87 -815 -264 -109 -50 -202 -91 -206 -91
-3 0 -9 26 -12 58 -4 52 -47 200 -66 231 -13 20 -118 -39 -195 -111 -75 -68
-106 -124 -106 -193 0 -43 4 -52 39 -85 l39 -37 -100 -32 c-54 -17 -130 -36
-169 -42 -64 -10 -71 -9 -95 10 -28 22 -60 27 -83 12 -23 -15 -87 24 -126 77
-20 27 -48 86 -64 137 -30 91 -42 83 -17 -12 21 -80 57 -142 107 -187 l46 -41
-34 -31 c-18 -17 -33 -38 -33 -45 0 -26 39 -78 78 -104 44 -29 151 -69 161
-60 3 4 6 53 6 110 l0 103 63 6 c35 4 118 25 184 46 67 22 129 40 139 40 10 0
33 -9 51 -20 74 -45 145 -7 171 88 l12 46 115 54 c148 70 379 172 388 172 4 0
-23 -18 -59 -39 -91 -53 -185 -117 -459 -312 -129 -91 -284 -197 -345 -234
-132 -82 -320 -173 -430 -209 l-79 -27 -42 23 c-41 21 -44 22 -78 6 -19 -10
-43 -29 -52 -43 -16 -25 -17 -25 -158 -25 -228 0 -464 33 -766 107 -80 19
-146 36 -147 37 -1 1 7 22 20 47 17 34 22 66 25 147 l4 102 -27 0 c-44 0 -129
-28 -178 -60 -63 -40 -81 -70 -75 -125 l5 -44 -171 61 c-94 33 -186 65 -204
71 -18 6 -44 25 -58 44 -36 47 -59 57 -95 43 -33 -14 -16 -19 -233 72 -76 32
-140 57 -142 55 -5 -5 291 -147 306 -147 17 0 12 -10 -20 -37 -40 -33 -40 -71
1 -118 35 -40 67 -58 145 -85 l52 -18 6 21 c3 12 6 52 6 89 l0 68 53 -22 c28
-11 138 -50 242 -86 124 -42 199 -73 217 -90 22 -20 33 -23 62 -18 25 5 82 -5
198 -34 90 -22 227 -51 303 -63 l139 -24 -85 -6 c-146 -12 -235 -9 -249 8 -16
19 -49 19 -75 1 -26 -18 -58 -24 -195 -36 -297 -27 -451 -80 -433 -150 12 -47
126 -111 264 -150 40 -11 74 -18 76 -16 2 2 -32 16 -74 31 -146 53 -243 110
-243 144 0 43 117 81 332 106 160 18 155 18 140 3 -16 -16 -15 -83 2 -117 21
-40 96 -106 155 -136 l51 -25 11 27 c27 72 41 151 36 209 l-4 61 60 7 c33 3
193 6 355 6 l295 0 -21 -23 c-74 -79 -29 -189 100 -250 66 -30 170 -57 226
-57 l42 0 0 64 c0 88 -24 204 -54 264 l-25 49 82 27 c198 65 449 212 812 476
543 395 797 505 1130 486 216 -13 273 -23 316 -59 21 -18 39 -37 39 -44 0 -6
15 -28 34 -47 27 -29 41 -36 72 -36 39 0 89 24 131 62 l22 21 107 -37 c362
-125 750 -369 1059 -665 61 -58 99 -94 86 -78 -14 15 -21 27 -17 27 5 0 -16
26 -45 58 -232 253 -300 504 -203 746 43 108 105 166 176 166 66 0 123 -67
162 -190 l22 -69 21 72 c33 112 107 197 171 197 40 0 101 -39 137 -88 82 -112
117 -301 81 -442 -33 -129 -120 -284 -219 -387 -23 -24 -38 -45 -35 -48 8 -9
144 152 200 237 122 183 164 383 119 560 -58 225 -190 341 -324 284 -46 -19
-113 -98 -133 -158 l-16 -50 -34 70 c-72 149 -190 190 -295 103 -39 -33 -100
-140 -119 -211 -60 -220 1 -463 167 -667 24 -29 43 -55 43 -59 0 -3 -35 25
-77 62 -283 247 -632 453 -954 565 l-66 23 32 70 c35 75 59 171 71 274 l7 62
-84 -1 c-46 0 -114 -7 -151 -14z m1719 -76 c33 -12 96 -71 124 -116 66 -106
100 -274 81 -395 -11 -74 -40 -183 -47 -176 -2 2 3 32 12 68 56 238 -73 520
-237 520 -53 0 -116 -43 -150 -103 -36 -63 -38 -50 -7 37 49 135 136 199 224
165z m-386 -36 c44 -40 71 -86 100 -172 21 -60 20 -81 -2 -29 -21 51 -87 117
-128 128 -80 21 -153 -26 -206 -133 -51 -104 -71 -210 -57 -312 6 -44 13 -89
17 -100 6 -17 5 -17 -4 -4 -21 33 -41 146 -41 234 0 226 111 425 237 425 35 0
50 -7 84 -37z m-86 -953 c10 -11 16 -20 13 -20 -3 0 -13 9 -23 20 -10 11 -16
20 -13 20 3 0 13 -9 23 -20z"/>
<path d="M7276 3863 c-55 -74 -115 -200 -131 -277 -27 -135 17 -236 105 -235
19 0 45 5 58 13 13 7 37 10 53 8 26 -4 19 -9 -64 -47 -123 -55 -269 -133 -387
-208 -97 -61 -280 -193 -280 -202 0 -2 44 27 97 66 391 283 801 456 1273 536
147 24 554 25 686 0 161 -30 234 -53 252 -79 29 -43 82 -85 121 -97 31 -9 48
-8 89 5 l51 17 428 -211 c235 -116 464 -225 508 -243 114 -45 322 -115 388
-130 60 -13 71 -23 36 -34 -26 -9 -59 -62 -59 -96 0 -32 34 -83 80 -121 64
-51 206 -87 349 -88 l53 0 -6 58 c-4 31 -16 90 -27 130 -10 40 -19 74 -19 76
0 2 105 6 233 9 197 5 423 24 503 42 18 4 23 -2 33 -38 13 -54 74 -125 153
-179 68 -45 65 -47 100 42 16 41 22 78 22 143 l1 88 35 9 c250 64 340 89 480
136 91 30 197 71 235 90 39 19 61 31 50 28 -11 -3 -112 -37 -225 -74 -113 -38
-291 -90 -396 -116 -182 -46 -193 -48 -233 -34 -38 12 -49 12 -99 -4 -58 -19
-78 -27 -122 -51 -47 -25 -267 -47 -530 -51 l-255 -5 -35 53 c-24 35 -50 61
-81 77 -43 23 -50 24 -88 13 -24 -8 -57 -29 -80 -53 l-38 -40 -80 20 c-230 59
-399 129 -893 372 -212 104 -391 189 -398 189 -6 0 -12 5 -12 11 0 7 7 8 18 4
9 -4 53 -20 97 -35 44 -15 186 -67 315 -115 178 -67 244 -97 273 -122 34 -30
44 -34 90 -32 36 1 96 -12 192 -40 412 -122 718 -119 976 10 l56 28 24 -26
c37 -40 103 -64 190 -70 l79 -6 0 29 c0 48 -29 146 -54 184 l-24 35 87 90 c91
94 176 206 217 288 13 26 23 47 21 47 -2 0 -25 -31 -50 -69 -60 -90 -186 -240
-245 -291 -42 -36 -51 -40 -85 -34 -36 6 -41 3 -102 -60 -36 -36 -65 -71 -65
-79 0 -18 -139 -82 -239 -110 -65 -18 -102 -21 -261 -21 -203 0 -315 18 -542
85 l-107 31 30 38 c34 42 73 156 84 243 l6 57 -63 0 c-139 -1 -269 -48 -309
-113 -28 -47 -24 -83 11 -119 19 -18 24 -28 13 -24 -97 37 -456 170 -518 192
-44 15 -81 28 -83 29 -1 2 11 24 28 51 53 86 100 252 100 353 l0 48 -97 -4
c-218 -7 -369 -67 -428 -167 -37 -63 -29 -135 19 -168 16 -11 10 -10 -126 14
-107 19 -158 22 -383 22 -223 0 -277 -3 -383 -22 -138 -25 -288 -61 -376 -92
-33 -11 -61 -20 -63 -20 -2 0 3 13 12 30 21 40 19 119 -5 182 -24 65 -107 176
-177 235 l-52 44 -35 -48z"/>
<path d="M4294 3411 c-28 -13 -52 -35 -74 -70 -25 -37 -40 -51 -57 -51 -97 0
-329 -90 -367 -142 -51 -71 9 -152 156 -208 127 -49 317 -91 398 -89 34 1 34
2 -10 11 -313 69 -431 110 -496 172 -24 24 -44 50 -44 59 0 50 100 110 245
146 141 34 137 34 131 14 -11 -37 -25 -109 -30 -152 l-4 -44 97 6 c153 9 255
57 287 134 12 28 12 38 0 67 l-14 33 67 6 c84 8 370 -8 509 -29 380 -55 828
-218 1110 -402 12 -8 22 -12 22 -9 0 10 -162 104 -285 165 -404 201 -860 305
-1319 301 l-148 -1 -31 37 c-17 21 -45 44 -63 51 -40 17 -31 17 -80 -5z"/>
<path d="M8432 3410 c-22 -10 -48 -32 -58 -49 l-18 -31 -166 0 c-435 0 -837
-90 -1254 -279 -71 -32 -266 -139 -266 -146 0 -2 60 27 133 65 334 173 674
277 1052 320 115 13 455 25 455 16 0 -4 -7 -18 -16 -31 -39 -60 24 -148 131
-186 36 -12 98 -23 152 -26 l93 -6 -1 39 c0 21 -8 69 -18 107 l-17 67 22 0
c38 0 212 -48 274 -76 59 -27 110 -72 110 -99 0 -27 -54 -77 -120 -110 -73
-37 -190 -73 -345 -106 -99 -21 -160 -47 -80 -34 376 61 565 144 565 249 0 19
-9 45 -21 60 -41 53 -185 108 -352 137 -57 9 -70 15 -81 38 -21 38 -68 80
-103 90 -23 7 -41 4 -71 -9z"/>
<path d="M6599 2893 c-13 -16 -12 -17 4 -4 9 7 17 15 17 17 0 8 -8 3 -21 -13z"/>
<path d="M6634 2884 c-18 -14 -18 -15 4 -4 12 6 22 13 22 15 0 8 -5 6 -26 -11z"/>
</g>
</svg>
