<svg id="Layer_3" data-name="Layer 3" xmlns="http://www.w3.org/2000/svg" viewBox="0 0 209.21 59.44">
<defs><style>.cls-1{fill:#4a4a4a;fill-rule:evenodd;}</style></defs>
<path class="cls-1" d="M154,16a19.89,19.89,0,0,1,4.78,1l.36.12h0c10.14,4,13.69,18.09,7.92,27.08-3.59,6.19-13.4,10.9-25,10.22-11.63-.4-24.74-4.48-38.22-9.67C90.25,39.74,78.12,33.27,66.23,31a96.74,96.74,0,0,0-28.8-1,45.18,45.18,0,0,0-15.59,4.14c-4.83,2.37-9,6.9-9.71,12.48h0L12,47.81a19.62,19.62,0,0,0,.38,5,48.5,48.5,0,0,1,0-5l.16-1.16h0a15.39,15.39,0,0,1,6.11-10,30.35,30.35,0,0,1,10.93-4.88c5-1.21,15.31-2.25,28.53-.48,13.48.94,28.12,9.1,45,15.51,16.7,6.43,33.42,11,47,8.62,6.73-1.19,12.31-4.28,15.52-8.13a19.22,19.22,0,0,0,4.44-10.49c1-8-2.95-16.88-10.6-20l-.55-.2A12.29,12.29,0,0,0,154,16Z

M98.53,67s-1,.16-2.14.42l-.16,0h0a22.8,22.8,0,0,1-13.68-1.34,30.26,30.26,0,0,1-9.88-7.43,26,26,0,0,1-6.59-15.33c-.4-6.16,2-11.82,4.4-16.25a37.12,37.12,0,0,1,7.83-9.68A37,37,0,0,1,90.72,11h0l.49-.15a11.35,11.35,0,0,0,2.05-.73,12,12,0,0,0-2.16.34l-.5.15h0a38.09,38.09,0,0,0-9.66,4.44,34.06,34.06,0,0,0-9.75,8.28C67.64,28,63.47,35,63.93,43.53A26.3,26.3,0,0,0,74.2,62.25a27.61,27.61,0,0,0,11.56,5.4,22.24,22.24,0,0,0,10.48.25l.25-.05A7.49,7.49,0,0,0,98.53,67Z

M96.36,67.7a7.06,7.06,0,0,0,2-.2l.15,0h0a22,22,0,0,0,10.79-7.15,28.12,28.12,0,0,0,6.22-10,23.77,23.77,0,0,0,.36-16.5c-2.2-5.66-6-10.4-10.53-12.62a13.06,13.06,0,0,0-11.64-.33A10.72,10.72,0,0,0,87.2,31.54h0l.06.48a6,6,0,0,0,.54,2s0-.92-.14-2l-.06-.46h0a10.23,10.23,0,0,1,3.56-8.61,11.71,11.71,0,0,1,10.65-1.52c5,1.48,9.57,6.68,12.06,13.21S114.93,48,113,52.78a30.67,30.67,0,0,1-6.18,9.59,20.88,20.88,0,0,1-8.28,4.68l-.21,0A19.26,19.26,0,0,0,96.36,67.7Z

M221.13,48.56l-3.22,1.31-.24.11h0a50.64,50.64,0,0,1-21.92,3.67c-9.79-.53-27.54-4.84-44.28-16.29-7.93-6-15.16-12.62-22-17.23s-13.22-7.84-18-9.23c-7.13-2.49-15.2-2.74-22.24.28h0l-.76.32a18.78,18.78,0,0,0-3,1.76l3.21-1.38.74-.33h0a29.26,29.26,0,0,1,16.54-1.68c3.56.67,10.37,3.09,18.09,8.36,7.89,5.09,16.19,13.08,26.33,20.92a89.83,89.83,0,0,0,30.95,13.41A66.51,66.51,0,0,0,201.36,54a48.23,48.23,0,0,0,16.33-3.61l.39-.16A19.16,19.16,0,0,0,221.13,48.56Z

M143.88,22.67A8.62,8.62,0,0,1,147.7,21l.31,0h0c4.68-.13,7.85,5,7.88,9.44a13.28,13.28,0,0,1-6.69,11.31C143.76,44.6,134.69,44,125,41.41c-9.85-2.56-20.65-7.48-32.51-12-12.08-4.06-23.33-7.92-33.8-8.86-10.33-.77-19.52,2.1-23.66,7.06a15.4,15.4,0,0,0-4,13.31,10.92,10.92,0,0,0,3.38,6.26,7.61,7.61,0,0,0,6.83,1.6h0l1-.27a12,12,0,0,0,3.76-2.26,23.62,23.62,0,0,1-3.9,1.87l-.95.28h0c-3.43,1-7.11-1.07-8.6-4.25a13.86,13.86,0,0,1-.74-10.24,15.66,15.66,0,0,1,5.75-7.7C41,23.7,46,22.27,51.73,22c11.53-.73,25.34,4.63,40,9.45,14.49,5.65,28,11.41,39.79,12.92,5.82.64,11.16.66,15.29-.81a13,13,0,0,0,7.53-6.3A11.9,11.9,0,0,0,155.7,27c-1.06-3.27-3.84-6.5-7.54-6.43a2.22,2.22,0,0,0-.51,0A6.43,6.43,0,0,0,143.88,22.67Z" transform="translate(-11.92 -8.98)"/>

</svg>