<svg id="Layer_3" data-name="Layer 3" xmlns="http://www.w3.org/2000/svg" viewBox="0 0 203.29 86.25">
<defs>
   <style>.cls-1{fill:#4a4a4a;fill-rule:evenodd;}</style>
</defs>

<path class="cls-1" d="M204.18,46.56S203,47.8,201.5,49.15l-.2.2h0a39.81,39.81,0,0,1-9.93,6.17,31.78,31.78,0,0,1-11.11,2.26,57.92,57.92,0,0,1-19.82-4.14c-7.88-2.93-16.64-7.54-25.75-13-9-5.66-17.91-10.4-25.92-13.34a55.19,55.19,0,0,0-20.18-3.74,50.78,50.78,0,0,0-22.34,5.07h0l-.76.36a20.32,20.32,0,0,0-3.17,1.84s1.5-.6,3.29-1.46l.77-.37v0a52.54,52.54,0,0,1,16.53-4.78,51.43,51.43,0,0,1,20,2.69c9.1,2.91,19.69,8.72,30.85,15.69,11.3,6.79,22.37,12,31.74,14.2a51.47,51.47,0,0,0,12.39,1.64,35.17,35.17,0,0,0,8-.91,27.94,27.94,0,0,0,8.12-2.88,38.35,38.35,0,0,0,7.35-4.92l.31-.28A13.28,13.28,0,0,0,204.18,46.56Z" transform="translate(-29.41 -13.97)"/>

<path class="cls-1" d="M202.8,48.28a4,4,0,0,0,1.09-.93l.06-.09h0a17.59,17.59,0,0,0,3.8-8.84,19.89,19.89,0,0,0-.27-9A16.76,16.76,0,0,0,205.07,24a22.28,22.28,0,0,0-4.29-4.51,25.16,25.16,0,0,0-10-4.77A30.11,30.11,0,0,0,183,14a39.09,39.09,0,0,0-8.57.6h0l-.3,0a4.33,4.33,0,0,0-1.29.49,4.93,4.93,0,0,0,1.34-.07l.31-.06h0a40,40,0,0,1,6.37-.6,41.6,41.6,0,0,1,7.51,1.31,31.54,31.54,0,0,1,11.29,5.6,27.32,27.32,0,0,1,2.62,2.4,16.38,16.38,0,0,1,2.11,2.62,20.79,20.79,0,0,1,2.47,14.39,16.59,16.59,0,0,1-3.16,6.22l-.11.11A7.91,7.91,0,0,0,202.8,48.28Z" transform="translate(-29.41 -13.97)"/>

<path class="cls-1" d="M185.52,36.76a3.78,3.78,0,0,0-1.06.56l-.06,0h0a19.24,19.24,0,0,1-6.72,3.2,13.83,13.83,0,0,1-6.36-.65,12.75,12.75,0,0,1-6.69-5.77,12.25,12.25,0,0,1-1.15-9.23A13.45,13.45,0,0,1,167,19a19.45,19.45,0,0,1,6.59-3.58h0l.26-.07a3.47,3.47,0,0,0,1-.54,3.13,3.13,0,0,0-1.15.13l-.26.08h0a21.52,21.52,0,0,0-5.14,2.47,13,13,0,0,0-5.29,4.88,12.25,12.25,0,0,0-1.74,6A13.43,13.43,0,0,0,163,35.35a13,13,0,0,0,4.68,4.87,12,12,0,0,0,5.21,1.61,13.05,13.05,0,0,0,6.64-1.39,20.74,20.74,0,0,0,5-2.7l.1-.07A4,4,0,0,0,185.52,36.76Z" transform="translate(-29.41 -13.97)"/>

<path class="cls-1" d="M183.38,38.36a1.37,1.37,0,0,0,.7-.28l0,0h0A10,10,0,0,0,187,33.9a9.48,9.48,0,0,0,1.15-4.74,8.21,8.21,0,0,0-.85-3.33,7.1,7.1,0,0,0-2.41-2.69,7.39,7.39,0,0,0-6-.87,7,7,0,0,0-3.73,2.37,4.82,4.82,0,0,0-1.35,2.24,4.68,4.68,0,0,0,.11,2.75h0l.07.18a1.43,1.43,0,0,0,.5.65,2.84,2.84,0,0,0-.18-.81l-.05-.17h0a4.11,4.11,0,0,1,.38-3.6,6.12,6.12,0,0,1,3.45-1.82,7.89,7.89,0,0,1,5.83,1,6.45,6.45,0,0,1,2.91,5.41,12.33,12.33,0,0,1-.65,4.35,9.35,9.35,0,0,1-2.24,2.82l-.06,0A2,2,0,0,0,183.38,38.36Z" transform="translate(-29.41 -13.97)"/>

<path class="cls-1" d="M212.06,56.42a15,15,0,0,1-4.84-1l-.36-.13h0c-5-2.1-9.1-6.78-11.21-12.38a8.91,8.91,0,0,1,1.08-8.39,10.61,10.61,0,0,1,6.89-4,11,11,0,0,1,5.68.69A9.88,9.88,0,0,1,212.11,33a8.05,8.05,0,0,1,1.18,1.33,11.06,11.06,0,0,1,.71,1.12l.76,1.44a24.14,24.14,0,0,1,1-2.25,7.33,7.33,0,0,1,.87-1.19,7.12,7.12,0,0,1,2.27-1.61,9,9,0,0,1,10.72,3.3,6.8,6.8,0,0,1,.73,1.51l.31.92a7.88,7.88,0,0,1,.24.83A10.62,10.62,0,0,1,231,42a21.4,21.4,0,0,1-2.67,7.3,37.16,37.16,0,0,1-4.76,6.49,23.33,23.33,0,0,1-13.45,7.86c-7,1.17-13.94-1.1-20.08-3.87a144.06,144.06,0,0,1-16.93-9.62c-10.28-6.7-18.89-12.52-25.34-16.06a83.88,83.88,0,0,0-14.94-7.22,34.56,34.56,0,0,0-16-2.09h0c-.39.05-.79.11-1.19.2a18.61,18.61,0,0,0-4.82,1.63,44.49,44.49,0,0,1,4.89-1.22l1.15-.2h0c8.08-1.09,16.13,1.68,23.51,5.3,2.39,1.25,5.84,3.22,10.11,6s9.32,6.31,15.06,10.35A219,219,0,0,0,185,59.52a65.77,65.77,0,0,0,11.87,5.19,29.7,29.7,0,0,0,13.5,1.21c5.65-.91,10.72-4.27,14.46-8.56a38,38,0,0,0,4.94-6.93,23.19,23.19,0,0,0,2.83-8.11,12.71,12.71,0,0,0-.17-4.39,9.88,9.88,0,0,0-.31-1.06l-.34-.9a8.16,8.16,0,0,0-1-1.89A9.9,9.9,0,0,0,224.87,30a9.63,9.63,0,0,0-6.43.56,8.37,8.37,0,0,0-2.58,2,10,10,0,0,0-1,1.31c-.08.22-.19.45-.28.71l-.22-.39-.36-.52a10.86,10.86,0,0,0-1.32-1.38,9.93,9.93,0,0,0-3-1.81,11.28,11.28,0,0,0-5.85-.61,11.16,11.16,0,0,0-7.44,4.43,9.48,9.48,0,0,0-1.73,6.51,17.66,17.66,0,0,0,2.49,6.3,21.2,21.2,0,0,0,9.33,8.56c.19.08.36.16.54.22A10.21,10.21,0,0,0,212.06,56.42Z" transform="translate(-29.41 -13.97)"/>

<path class="cls-1" d="M133.69,68.19a5.81,5.81,0,0,0,1.08,2.22,1.12,1.12,0,0,0,.1.16h0a11.07,11.07,0,0,0,6.29,3.55,27.11,27.11,0,0,0,7,.5,59.16,59.16,0,0,0,12.44-1.35,134.91,134.91,0,0,0,16.84-4.71,82.89,82.89,0,0,0,16.21-7.12c4.57-2.58,8.38-4.86,11.15-6.35A18.28,18.28,0,0,1,211.37,53a4,4,0,0,1,1.62.26,1.11,1.11,0,0,1,.74,1.16,2.66,2.66,0,0,1-2.51,1.79h-.46a12.57,12.57,0,0,1-2.09-.22,4.21,4.21,0,0,0,2.08.65l.51,0h0a3.41,3.41,0,0,0,2.4-1.2,1.72,1.72,0,0,0,.41-1.47,1.57,1.57,0,0,0-1-1.08c-1.74-.64-3.52-.07-5.18.46-2.22.6-6.34,2.48-11.68,5.06a127,127,0,0,1-19.35,8.06C169.47,69,162.61,71.16,157,72.48a55.46,55.46,0,0,1-12.29,1.69,19.54,19.54,0,0,1-5.07-.93,9.8,9.8,0,0,1-4.42-2.89,2.62,2.62,0,0,0-.17-.21A21.48,21.48,0,0,1,133.69,68.19Z" transform="translate(-29.41 -13.97)"/>

<path class="cls-1" d="M204.42,81.11l-1.3,1.45-.1.09h0A8,8,0,0,1,197.74,85a17.67,17.67,0,0,1-5.82-.62,59.67,59.67,0,0,1-9.78-4.49c-3.89-2.15-8.26-4.94-13-7.87-2.36-1.45-4.72-2.83-7-4a59.7,59.7,0,0,0-6.67-2.69A50.94,50.94,0,0,0,145,62.92a20.06,20.06,0,0,0-6-.27,7.14,7.14,0,0,0-2.93,1,4.5,4.5,0,0,0-2,2.68v0l-.13.49A5,5,0,0,0,134,69s0-1,.25-2.11l.1-.45h0a4.47,4.47,0,0,1,3.22-3.07A12.81,12.81,0,0,1,142,63a46.68,46.68,0,0,1,10.26,2.88c2.33.89,4.91,2,7.6,3.3s5.48,3.06,8.4,4.83a115.92,115.92,0,0,0,16.11,8.66,32,32,0,0,0,10.44,2.7c2.89.38,6.15,0,8.43-2.32l.16-.18A4.94,4.94,0,0,0,204.42,81.11Z" transform="translate(-29.41 -13.97)"/>

<path class="cls-1" d="M177.25,97.86s-.8.32-1.74.75l-.14.06h0A12.47,12.47,0,0,1,163.79,98a11.79,11.79,0,0,1-3.41-3.53,10.81,10.81,0,0,1-1.59-6.12,11,11,0,0,1,2.8-6.65,17.8,17.8,0,0,1,6.47-4.33,37.59,37.59,0,0,1,7.51-2.15,35.17,35.17,0,0,1,7-.67,88.15,88.15,0,0,1,10.82.35,33.25,33.25,0,0,1,5.9,1.46A12.39,12.39,0,0,1,202,77.74a4.3,4.3,0,0,1,1.93,2.33h0a1.91,1.91,0,0,1,.08.44,5.49,5.49,0,0,1-.19,2,3.11,3.11,0,0,0,.55-2.07,2.6,2.6,0,0,0-.1-.5h0a6,6,0,0,0-3.46-3.33,21.82,21.82,0,0,0-4.39-1.48,53.09,53.09,0,0,0-10.81-2,50.52,50.52,0,0,0-8.54-.15,35.47,35.47,0,0,0-9.68,2.36A16.82,16.82,0,0,0,159.11,82a12.22,12.22,0,0,0-1.17,10,11.41,11.41,0,0,0,4.47,5.9,12,12,0,0,0,4.07,1.78,12.78,12.78,0,0,0,9-.58l.2-.09A6.18,6.18,0,0,0,177.25,97.86Z" transform="translate(-29.41 -13.97)"/>

<path class="cls-1" d="M176,98.55a.72.72,0,0,0,.49,0l0,0h0A8.71,8.71,0,0,0,179,96.41a5.31,5.31,0,0,0,1.71-2.7,6,6,0,0,0-.79-4.79,5.08,5.08,0,0,0-3.66-2.32,4.48,4.48,0,0,0-2.82.66,7.06,7.06,0,0,0-2.65,1.64v0l-.1.06a.88.88,0,0,0-.23.51.74.74,0,0,0,.47-.18l.08-.08h0a6.78,6.78,0,0,1,1.84-1.3,5.74,5.74,0,0,1,2.5.1,5.42,5.42,0,0,1,3,2.23,5.37,5.37,0,0,1,.84,3.84,7.63,7.63,0,0,1-1,2.62,9.16,9.16,0,0,1-1.79,1.39l-.06,0A.9.9,0,0,0,176,98.55Z" transform="translate(-29.41 -13.97)"/>

<path class="cls-1" d="M124.48,45.68l1.52,1,.1.08h0a4.23,4.23,0,0,1,1.72,2.31,5.37,5.37,0,0,1-.17,3,13.09,13.09,0,0,1-3.45,5,13.3,13.3,0,0,1-3.86,2.38,15.21,15.21,0,0,1-5.5,1.06,18.08,18.08,0,0,1-12.65-5,13.14,13.14,0,0,1-2.33-3,17.5,17.5,0,0,1-1.62-10.88,21.16,21.16,0,0,1,4.71-10A20.78,20.78,0,0,1,113,25.89h0l.42-.1a9,9,0,0,0,1.72-.53,6.46,6.46,0,0,0-1.79.13l-.42.09h0a21,21,0,0,0-8,3.89,19.69,19.69,0,0,0-7.12,8.73,19.08,19.08,0,0,0-1.44,9.4,18.44,18.44,0,0,0,1.37,5.24,13.44,13.44,0,0,0,3.12,4.6,17.68,17.68,0,0,0,8.69,4.6,17.39,17.39,0,0,0,8.25-.19,14.24,14.24,0,0,0,5.77-3.2,15.46,15.46,0,0,0,2.86-3.42,9.42,9.42,0,0,0,1.83-4.46,4.57,4.57,0,0,0-2-4.23l-.17-.12A4.66,4.66,0,0,0,124.48,45.68Z" transform="translate(-29.41 -13.97)"/>

<path class="cls-1" d="M101.91,50.39a7.06,7.06,0,0,0,2.3,1.17l.19,0h0a7.55,7.55,0,0,0,7.75-1.8,6.63,6.63,0,0,0,1.74-4.27,8.66,8.66,0,0,0-1.1-4.54c-1.79-3.68-6.3-7.15-12.09-8.72S88,30.4,80.72,31A57.91,57.91,0,0,0,70.4,33.55c-3.22,1-6.22,2.09-9,3.08a130.31,130.31,0,0,1-13.73,4.19,37.54,37.54,0,0,1-7.89.7,17.76,17.76,0,0,1-7.68-1.78h0l-.51-.29c-1.21-.67-2.16-1.29-2.17-1.27a7.41,7.41,0,0,0,2,1.64,4.54,4.54,0,0,0,.53.3h0c3.69,1.86,7.84,2,11.81,1.66a65.73,65.73,0,0,0,14.17-2.47c3.24-.86,6.84-2,10.7-3.11a83.28,83.28,0,0,1,12.29-3c8.72-.71,17-.55,23.21,1.81a17.54,17.54,0,0,1,7.2,4.87,8.76,8.76,0,0,1,2.21,5.6,6.2,6.2,0,0,1-3.21,5.22,7.84,7.84,0,0,1-5.76.5l-.27-.07C103,50.77,101.92,50.39,101.91,50.39Z" transform="translate(-29.41 -13.97)"/>

</svg>