<?xml version="1.0" encoding="utf-8"?>
<!DOCTYPE svg PUBLIC "-//W3C//DTD SVG 1.1//EN" "http://www.w3.org/Graphics/SVG/1.1/DTD/svg11.dtd">
<svg version="1.1" id="Layer_1" xmlns="http://www.w3.org/2000/svg" xmlns:xlink="http://www.w3.org/1999/xlink" x="0px" y="0px"
	 viewBox="0 0 2560 1600" enable-background="new 0 0 2560 1600" xml:space="preserve">
<g>
	<path d="M2490.5693,965.8387c-1.8699-1.4465-3.9275-2.8718-6.0764-4.4078c-2.1523-1.5316-4.4175-3.1433-6.7939-4.8343
		c-4.7615-3.3698-9.9351-7.1071-15.6062-11.0594c-11.5037-7.6628-24.6211-16.7599-39.9126-26.1951
		c-30.3987-19.1394-68.5417-41.1762-114.5295-63.4752c-2.8748-1.3909-5.739-2.8709-8.6931-4.223
		c-2.9521-1.357-5.9292-2.7255-8.9309-4.1053c-6.0068-2.7565-12.1125-5.5584-18.3154-8.405
		c-6.2739-2.6877-12.6462-5.4177-19.1152-8.1891c-3.2371-1.382-6.498-2.7743-9.7832-4.1769
		c-3.3184-1.321-6.6611-2.6517-10.0278-3.9919c-6.7417-2.6599-13.5486-5.4442-20.51-8.1079
		c-6.9951-2.5767-14.0854-5.1885-21.2695-7.8347c-1.7964-0.6614-3.5986-1.325-5.4067-1.9907
		c-1.8071-0.6692-3.6494-1.2545-5.4817-1.8889c-3.6724-1.2465-7.3682-2.5008-11.0872-3.7631
		c-3.7197-1.2619-7.4626-2.5317-11.2285-3.8093l-2.8289-0.9595l-2.8601-0.8918c-1.9102-0.5942-3.8259-1.1901-5.7476-1.7878
		c-30.6523-9.8745-63.2664-18.6678-97.5471-26.5287c-17.5576-4.0082-35.5742-7.7232-54.0137-11.0903
		c-0.2776-0.1584-0.5522-0.3129-0.8314-0.4736c-5.2379-3.2785-10.7656-7.0739-16.1915-11.7632
		c-10.7598-9.4057-21.4523-22.062-28.9204-38.2368c-7.4927-16.0857-11.6211-35.6252-10.0546-56.2083
		c0.7218-10.2797,3.0402-20.7579,6.8898-30.946c0.8816-2.5789,2.0719-5.0547,3.1755-7.5803
		c0.5192-1.2784,1.2208-2.4764,1.8438-3.7148c0.6488-1.2258,1.2563-2.4775,1.9388-3.694c0.7179-1.1965,1.4382-2.3971,2.161-3.6016
		l1.0817-1.8094l1.1989-1.7446c0.7969-1.1655,1.5964-2.3347,2.3984-3.5076c0.8494-1.1389,1.7439-2.2506,2.6141-3.3834
		c6.9943-9.0511,15.766-17.0072,25.6027-23.7211c1.2445-0.8187,2.53-1.5825,3.7948-2.3822l1.9059-1.1911l1.9769-1.0811
		c1.3206-0.7178,2.6443-1.4373,3.9714-2.1586c1.3668-0.6413,2.7369-1.2842,4.1104-1.9286c0.6901-0.3137,1.3624-0.669,2.068-0.9512
		l2.1202-0.8438c1.421-0.5461,2.8151-1.173,4.2628-1.6634c2.9069-0.9484,5.7946-1.9969,8.7966-2.7073
		c2.9567-0.8788,6.0088-1.4031,9.0465-2.0362c1.5234-0.2904,3.0695-0.4441,4.6063-0.6784l2.311-0.327l2.3339-0.1802
		c6.2167-0.621,12.5465-0.5063,18.8668,0.0251c6.3328,0.4867,12.6472,1.7029,18.8708,3.3496
		c1.5454,0.4536,3.1265,0.7982,4.6523,1.3342c1.532,0.5159,3.0664,1.0327,4.6033,1.5502c1.5249,0.5493,3.0159,1.1981,4.531,1.7889
		c0.7498,0.3141,1.5232,0.576,2.2561,0.9316l2.2131,1.0395c2.9937,1.3063,5.8115,2.9357,8.6741,4.4567
		c2.7476,1.7169,5.552,3.3298,8.1428,5.244c1.3215,0.9183,2.6555,1.8162,3.8882,2.8429c1.2524,0.9998,2.5283,1.9683,3.7622,2.9819
		c2.3774,2.1318,4.8008,4.1877,7.0552,6.4706c9.0251,8.9905,16.3401,19.2659,20.0229,30.1947
		c0.5039,1.3554,0.8293,2.7388,1.2241,4.1073c0.1707,0.6881,0.2959,1.3813,0.4502,2.0702l0.2239,1.0338l0.1533,1.0393
		c0.5022,2.7706,0.5886,5.5193,0.5688,8.2875c-0.0391,2.7663-0.4253,5.5126-0.928,8.2233
		c-0.5669,2.7028-1.3628,5.3482-2.3333,7.9222c-4.0054,10.273-11.4111,18.9579-20.4709,24.3795
		c-4.543,2.7318-9.5151,4.6539-14.5903,5.8607c-5.0938,1.1472-10.3047,1.4954-15.3889,1.1179
		c-5.0906-0.3956-10.0149-1.6138-14.6335-3.4526c-4.635-1.839-8.9187-4.4272-12.7571-7.4097
		c-3.8523-2.9827-7.1392-6.5187-9.8228-10.3215c-2.6719-3.8069-4.7307-7.9431-5.9146-12.1967
		c-1.1865-4.1959-1.55-8.5594-1.1616-12.8022c0.4299-4.2401,1.6133-8.3372,3.3726-12.069
		c3.5059-7.4892,9.4204-13.4163,16.1448-16.8159c6.7466-3.4594,14.2412-4.483,21.022-3.7238
		c3.3994,0.3799,6.6519,1.1692,9.6501,2.3167c2.9871,1.1764,5.7148,2.6729,8.1792,4.3535c2.4182,1.7361,4.5393,3.6763,6.385,5.7097
		c1.7637,2.0938,3.3743,4.1897,4.5667,6.3847c2.5144,4.3217,3.9275,8.6391,4.6582,12.4627
		c0.7688,3.8319,0.7837,7.1833,0.6538,9.8661c-0.0461,0.673-0.0894,1.3062-0.1299,1.8987c-0.0664,0.59-0.1624,1.1355-0.2327,1.6443
		c-0.0752,0.5089-0.144,0.977-0.207,1.4037c-0.0735,0.4249-0.1775,0.8005-0.2502,1.1403c-0.3115,1.3581-0.4709,2.0539-0.4709,2.0539
		s0.2236-0.6788,0.6604-2.0039c0.104-0.3334,0.2432-0.7026,0.3557-1.1219c0.1021-0.4226,0.2139-0.8862,0.3352-1.3901
		c0.1169-0.5055,0.2634-1.0495,0.3833-1.6403c0.0942-0.5961,0.1948-1.2328,0.3018-1.9097
		c0.3716-2.7099,0.6548-6.1441,0.1926-10.1791c-0.427-4.0261-1.5247-8.6691-3.8352-13.4877
		c-1.0911-2.4421-2.6313-4.8292-4.3792-7.2514c-1.8306-2.3627-3.9922-4.6711-6.5342-6.7964
		c-2.5789-2.0624-5.4934-3.9558-8.7527-5.5168c-3.27-1.5314-6.8774-2.692-10.7244-3.3965
		c-7.6675-1.4022-16.4575-0.8608-24.8274,2.7545c-8.3677,3.5741-16.0127,10.2795-20.9017,19.259
		c-2.4465,4.474-4.2271,9.4888-5.0742,14.8286c-0.8052,5.3402-0.6708,10.9962,0.5907,16.575
		c1.2335,5.5343,3.5488,10.8635,6.6404,15.7866c3.1028,4.9142,6.9583,9.4618,11.5059,13.3553
		c4.5403,3.8949,9.6567,7.3081,15.3428,9.8724c5.6843,2.5705,11.8787,4.3808,18.2949,5.1455
		c6.4177,0.7502,13.0515,0.5687,19.6113-0.6563c6.541-1.285,13.0293-3.5309,19.0686-6.8856
		c12.1223-6.7087,22.167-17.7594,27.8086-31.1761c1.3821-3.3652,2.5278-6.8549,3.3701-10.4527
		c0.7783-3.6091,1.3645-7.2984,1.5125-11.0534c0.1311-3.7375,0.052-7.5693-0.5271-11.2961l-0.1865-1.4058l-0.2637-1.3893
		c-0.1829-0.9247-0.3438-1.8588-0.5532-2.778c-0.4695-1.8208-0.8948-3.6683-1.5044-5.4439
		c-2.248-7.1945-5.6838-13.8925-9.7227-20.0847c-2.0249-3.0997-4.2485-6.0383-6.5591-8.9048
		c-2.3462-2.8285-4.802-5.5604-7.3684-8.1805c-2.5444-2.6214-5.3376-5.0622-8.0957-7.5477c-1.4231-1.1899-2.8926-2.3295-4.344-3.496
		c-1.4319-1.1939-2.9673-2.2519-4.4954-3.3257c-3.0051-2.2261-6.2366-4.1269-9.428-6.1106
		c-3.304-1.7861-6.5796-3.6588-10.041-5.1827l-2.5659-1.1983c-0.8513-0.4069-1.7429-0.7183-2.6118-1.0806
		c-1.7534-0.6868-3.4851-1.4254-5.2522-2.0579c-1.781-0.5944-3.5591-1.1879-5.3345-1.7805
		c-1.771-0.6061-3.5996-1.0147-5.3931-1.5256c-7.2163-1.8761-14.5422-3.2178-21.8931-3.7256
		c-7.3372-0.5525-14.6843-0.5833-21.903,0.2252l-2.7067,0.2551l-2.6837,0.4117c-1.7831,0.2937-3.5776,0.514-5.3376,0.8753
		c-3.5092,0.7744-7.0222,1.4633-10.4227,2.5269c-3.448,0.8956-6.7639,2.1489-10.085,3.3212
		c-1.6547,0.6022-3.2502,1.345-4.8698,2.0117l-2.4146,1.0278c-0.8026,0.3445-1.5704,0.763-2.3551,1.141
		c-1.559,0.7773-3.1141,1.5526-4.6654,2.3261c-1.5033,0.8613-3.0029,1.7205-4.4987,2.5776l-2.2305,1.2984l-2.1521,1.413
		c-1.4268,0.9493-2.8696,1.8658-4.2666,2.8399c-11.0574,7.9579-20.7441,17.3361-28.3448,27.863
		c-0.9462,1.3174-1.9115,2.614-2.8268,3.9384c-0.8638,1.3598-1.7247,2.7153-2.583,4.0665l-1.2798,2.0241l-1.1561,2.09
		c-0.7653,1.3918-1.528,2.779-2.2881,4.1615c-0.72,1.4029-1.3607,2.8412-2.038,4.2526c-0.6511,1.424-1.3766,2.8074-1.9141,4.2681
		c-1.1406,2.8911-2.3497,5.7285-3.2324,8.6614c-3.855,11.6076-5.8993,23.3916-6.1681,34.7945
		c-0.3198,11.4015,0.9368,22.4008,3.4247,32.621c2.4847,10.2261,6.2026,19.6708,10.7372,28.1104
		c4.5255,8.4504,9.8824,15.8848,15.5687,22.2914c5.6918,6.4134,11.7184,11.8057,17.6932,16.3447
		c2.8663,2.1477,5.735,4.0671,8.5658,5.8156c-13.7537-2.3726-27.7368-4.5464-41.944-6.4916
		c-75.1298-10.1135-156.5183-14.0224-241.7335-8.3182c-23.4424,1.5665-47.1672,3.863-71.0981,6.9407
		c-17.1503-3.4129-37.0278-9.34-58.0604-19.5875c-12.1396-5.9418-24.6238-13.3204-36.9435-22.407
		c-12.3193-9.0748-24.4606-19.8708-35.8082-32.4727c-11.3372-12.6003-21.8948-27.0085-30.8878-43.1514
		c-9.0051-16.1243-16.453-33.9782-21.652-53.1564c-5.1576-19.1658-8.2775-39.6733-8.0277-60.7419
		c0.2217-21.0455,4.1364-42.6445,11.9827-63.4019c7.814-20.7451,19.5508-40.6122,34.9033-57.9995
		c15.3055-17.4035,34.2054-32.3052,55.6661-43.2146c10.7085-5.4725,22.0657-9.9203,33.8344-13.277
		c11.7626-3.3527,23.9401-5.5955,36.2903-6.4825c12.358-0.8932,24.8331-0.3318,37.1599,1.8504
		c12.3226,2.1593,24.4379,5.9564,35.9591,11.2051c23.0249,10.5629,43.0262,26.9335,57.7031,46.7611
		c7.3655,9.901,13.3868,20.6812,18.0469,31.9067c4.6282,11.2388,7.8406,22.9645,9.5665,34.7778
		c1.7136,11.8093,1.9132,23.7267,0.3519,35.2863c-1.5262,11.5578-4.8724,22.722-9.6688,33.121
		c-9.5562,20.8345-25.0341,38.2763-43.4478,50.1357c-18.4163,11.8762-39.6796,18.4136-60.4141,18.7377
		c-10.3666,0.1439-20.5901-1.3007-30.1655-4.2912c-9.5732-2.9747-18.499-7.5352-26.4255-13.1984
		c-7.9288-5.6653-14.8741-12.4376-20.5647-19.9433c-5.7043-7.4963-10.1438-15.7235-13.3627-24.217
		c-6.3386-17.0028-7.6135-35.2108-3.2378-51.2478c1.0566-4.0115,2.4611-7.8859,4.1639-11.5696
		c1.694-3.687,3.6342-7.2119,5.8193-10.5211c2.2054-3.2952,4.6212-6.3871,7.2019-9.2656c2.5878-2.8745,5.3921-5.4745,8.2855-7.8779
		c2.8885-2.4169,5.9813-4.4839,9.0989-6.3992c3.1315-1.9016,6.3855-3.4769,9.6372-4.9129
		c6.5679-2.7089,13.2712-4.5824,19.8922-5.3334c13.2456-1.706,25.9172,0.9152,36.0651,6.1893
		c10.2031,5.2535,18.0128,12.7609,23.3114,20.5807c2.662,3.9158,4.7189,7.9191,6.2706,11.8248
		c1.579,3.8981,2.6252,7.7147,3.2882,11.311c1.2983,7.2082,1.092,13.5078,0.2637,18.45c-0.7953,4.9642-2.1006,8.6106-3.0966,10.9838
		c-0.4587,1.2082-0.9303,2.0663-1.1973,2.6631c-0.2809,0.5906-0.423,0.8895-0.423,0.8895s0.15-0.2949,0.4468-0.8776
		c0.2827-0.5892,0.7781-1.4366,1.2689-2.634c1.0602-2.352,2.4657-5.9756,3.3931-10.9566c0.4854-2.483,0.8087-5.3083,0.8763-8.4356
		c0.0743-3.1259-0.1069-6.5591-0.6897-10.2267c-0.5853-3.6644-1.5564-7.5686-3.0713-11.5757
		c-1.4878-4.0145-3.4922-8.1488-6.1244-12.216c-5.2399-8.1205-13.078-16.0197-23.5168-21.6811
		c-10.3691-5.6821-23.5597-8.7072-37.3883-7.2006c-6.9164,0.6476-13.9351,2.4572-20.8416,5.1541
		c-6.8658,2.7985-13.6201,6.5613-19.8218,11.4669c-3.083,2.4643-6.0774,5.1429-8.8525,8.1147
		c-2.7681,2.9757-5.369,6.1843-7.7545,9.6174c-2.3652,3.4471-4.4806,7.1319-6.3401,11.0027
		c-1.8684,3.8674-3.429,7.9503-4.626,12.1965c-4.9408,16.9965-3.8888,36.2958,2.5397,54.374
		c3.2631,9.0297,7.8379,17.8215,13.7872,25.8779c5.9318,8.0601,13.2128,15.3656,21.5823,21.5186
		c8.3656,6.1485,17.8381,11.154,28.0974,14.4858c10.2437,3.3413,21.1884,5.0178,32.2686,4.9917
		c22.1775-0.0972,44.8069-6.8026,64.5605-19.2646c19.7527-12.4526,36.4707-30.9515,46.861-53.1694
		c5.213-11.0747,8.9034-23.0815,10.6226-35.4979c1.7539-12.405,1.6071-25.1401-0.1508-37.7086
		c-1.7706-12.5697-5.1201-25.0078-9.9846-36.9557c-4.8953-11.9286-11.2472-23.3867-19.0413-33.9245
		c-15.5432-21.1082-36.7271-38.5016-61.2075-49.7347c-12.248-5.5814-25.1188-9.6021-38.2133-11.8797
		c-13.0858-2.3029-26.4075-2.8681-39.4211-1.8892c-13.0292,0.9705-25.8131,3.3735-38.1267,6.9353
		c-12.3099,3.5632-24.182,8.2758-35.3812,14.0703c-22.4189,11.5413-42.0995,27.2703-57.9517,45.569
		c-15.8969,18.2755-27.9674,39.1226-35.8986,60.8099c-7.9631,21.6839-11.7948,44.2351-11.7706,66.0756
		c-0.0007,21.8571,3.4832,42.8774,9.042,62.4874c5.6039,19.6202,13.5056,37.8093,22.9734,54.1716
		c9.4551,16.3788,20.4758,30.9151,32.2493,43.5637c11.785,12.6508,24.3345,23.4127,37.0155,32.3978
		c12.6816,8.9969,25.4844,16.2319,37.8911,22.0006c19.506,9.0259,37.9265,14.4218,54.1294,17.6245
		c-17.8423,2.3765-35.7947,5.1837-53.8304,8.4614c-21.9805,4.0573-44.105,8.6121-66.2594,13.8977
		c-11.1117,2.5206-22.1794,5.3951-33.3347,8.1605c-5.5542,1.4598-11.1212,2.923-16.7008,4.3896
		c-2.7888,0.7371-5.5807,1.4749-8.3757,2.2136c-2.7855,0.768-5.5741,1.5368-8.3657,2.3065
		c-44.6924,12.252-89.6959,26.108-135.2356,40.304c-45.5331,14.2006-91.6182,28.7396-138.5242,42.2177
		c-2.8798,0.8254-5.7585,1.6451-8.6364,2.4595c-6.9193-0.967-16.1709-2.8862-27.0154-6.9501
		c-12.6996-4.7399-27.519-12.6775-42.1498-25.055c-3.6011-3.1517-7.2855-6.4564-10.8011-10.1567
		c-1.8108-1.7955-3.5071-3.7565-5.2787-5.6934c-0.8724-0.981-1.7036-2.0123-2.5669-3.026c-0.863-1.0143-1.7239-2.0423-2.5398-3.12
		c-6.7094-8.4628-12.9127-18.1008-18.0868-28.8367c-2.6252-5.3484-4.8883-11.0159-6.8765-16.8948
		c-1.9707-5.8766-3.6366-12.0134-4.8755-18.3854c-2.5165-12.7177-3.6089-26.2374-3.0251-40.1788
		c1.1901-27.8747,9.0846-57.389,23.724-85.1307c7.3165-13.8687,16.276-27.2822,26.9412-39.724
		c5.3545-6.2021,11.0096-12.2578,17.1042-17.9634c6.113-5.6813,12.5579-11.1086,19.3585-16.1733
		c6.847-4.9981,14.0217-9.6458,21.5077-13.8586c7.4897-4.21,15.3544-7.8337,23.4407-10.9931
		c2.0394-0.741,4.0459-1.5934,6.1198-2.2533c2.0684-0.6752,4.1405-1.3516,6.2162-2.0292c4.2018-1.1706,8.4113-2.3939,12.6995-3.257
		c8.5551-1.8281,17.3138-3.0942,26.1794-3.499c8.8621-0.4034,17.6958-0.1078,26.3895,0.8668
		c2.1675,0.2881,4.3314,0.5757,6.4917,0.8629c2.1406,0.3981,4.2776,0.7955,6.4108,1.1921l1.5991,0.2989l1.5775,0.3834l3.1519,0.7624
		l3.145,0.7662l3.0908,0.9288c4.152,1.14,8.1494,2.6693,12.1523,4.1302c1.9583,0.8339,3.9126,1.6661,5.8632,2.4968
		c0.9883,0.3896,1.9279,0.8749,2.8732,1.3466l2.8368,1.407c0.9401,0.4767,1.9012,0.9146,2.8229,1.4197l2.7322,1.5668
		c1.8053,1.0655,3.6829,2.0134,5.3915,3.2133c1.7438,1.1464,3.484,2.2904,5.2205,3.4319c1.666,1.2353,3.3284,2.4679,4.9871,3.6978
		c13.03,10.1765,23.8628,22.7684,31.7256,36.6076c7.8854,13.8222,12.7578,28.9476,14.2136,43.9491
		c1.4752,14.9725-0.9122,29.9379-5.7216,43.5779c-4.822,13.6753-12.2155,26.0395-21.0911,36.4908
		c-8.8827,10.4628-19.2947,19.0215-30.4021,25.2897c-5.5532,3.1373-11.2795,5.7054-17.0676,7.6945
		c-5.7941,1.9763-11.6483,3.3345-17.4568,4.1653c-5.8093,0.8302-11.5688,1.1281-17.1886,0.9948
		c-5.6212-0.159-11.0908-0.7984-16.3606-1.7363c-5.278-0.9165-10.3297-2.2708-15.1481-3.8338
		c-4.8339-1.5314-9.3907-3.4134-13.71-5.4164c-1.075-0.5142-2.1405-1.024-3.1967-1.5293c-1.0349-0.5486-2.0607-1.0924-3.0771-1.6312
		c-0.5087-0.27-1.015-0.5388-1.519-0.8064c-0.4922-0.2883-0.9821-0.5753-1.4696-0.861c-0.9762-0.5723-1.9432-1.1391-2.9011-1.7006
		c-3.7498-2.3746-7.3169-4.749-10.5419-7.2883c-6.5079-5.006-11.963-10.2338-16.4526-15.3099
		c-8.9856-10.187-14.1398-19.5881-17.1986-26.0767c-1.4724-3.2814-2.542-5.82-3.1429-7.5687
		c-0.6436-1.7361-0.9731-2.6255-0.9731-2.6255s0.2667,0.9104,0.7872,2.6874c0.4812,1.7928,1.3761,4.4015,2.6395,7.8007
		c2.6439,6.7211,7.231,16.5625,15.7938,27.5269c4.2798,5.4624,9.564,11.1566,15.99,16.7007
		c3.1844,2.8084,6.7328,5.469,10.4941,8.1449c0.9625,0.6368,1.9343,1.2798,2.9154,1.929c0.4915,0.3242,0.9851,0.65,1.4812,0.9772
		c0.5089,0.3065,1.0201,0.6144,1.5338,0.9238c1.0294,0.6175,2.0682,1.2407,3.1163,1.8694c1.0737,0.5854,2.1569,1.1761,3.2495,1.7719
		c4.3995,2.3288,9.0747,4.5466,14.077,6.4169c4.9867,1.9016,10.255,3.5969,15.8124,4.8455
		c5.5488,1.2697,11.3575,2.2312,17.3901,2.6836c6.0315,0.4265,12.2743,0.3925,18.639-0.2298
		c6.3616-0.6219,12.8512-1.8331,19.2971-3.7318c6.441-1.911,12.8457-4.4702,19.0817-7.6696
		c12.4746-6.3937,24.2654-15.3535,34.4532-26.5235c10.1786-11.1625,18.8208-24.5427,24.6967-39.6896
		c2.9408-7.5642,5.1964-15.5569,6.5822-23.8539c1.4059-8.2916,1.8688-16.9008,1.2584-25.5831
		c-1.2346-17.3167-6.4237-34.629-15.046-50.4681c-8.6041-15.8463-20.5724-30.2477-35.1969-41.9978
		c-1.8657-1.4218-3.7356-2.8467-5.6096-4.2747c-1.948-1.3178-3.9004-2.6384-5.8568-3.9619c-1.9285-1.3726-4.0201-2.4806-6.05-3.704
		l-3.071-1.7985c-1.035-0.5804-2.1074-1.0904-3.1617-1.6388l-3.1819-1.6172c-1.0616-0.5403-2.1191-1.0931-3.2216-1.5464
		c-2.1851-0.9532-4.3744-1.9083-6.5679-2.8652c-4.47-1.6905-8.9524-3.4262-13.5812-4.7421l-3.4541-1.0573l-3.5048-0.8836
		l-3.5151-0.8706l-1.7604-0.4341l-1.7793-0.3465c-2.3756-0.4525-4.7552-0.9059-7.139-1.36
		c-2.4021-0.3302-4.8082-0.661-7.2184-0.9923c-9.6632-1.1222-19.4679-1.4666-29.2971-1.0151
		c-9.8324,0.4531-19.5457,1.8638-29.0402,3.9318c-4.7695,0.986-9.4052,2.3439-14.0321,3.6694
		c-2.2819,0.7587-4.5597,1.5161-6.8336,2.2721c-2.2776,0.7457-4.4764,1.6852-6.7104,2.5193
		c-8.8556,3.528-17.4207,7.5777-25.5306,12.2441c-8.1063,4.6693-15.8291,9.8073-23.1577,15.3152
		c-7.2795,5.5727-14.1375,11.5272-20.606,17.7468c-6.4493,6.2433-12.4005,12.8463-18.0016,19.6028
		c-11.1691,13.5616-20.4585,28.1733-27.8912,43.1725c-14.8837,30.0177-22.3243,61.7537-22.5391,91.5375
		c-0.0966,14.8931,1.6175,29.2757,4.841,42.7023c1.5885,6.7129,3.6323,13.1885,6.0061,19.3842
		c2.3859,6.1818,5.0547,12.0903,8.0811,17.6254c5.9779,11.1105,12.9684,20.9163,20.4044,29.4144
		c0.9067,1.082,1.8575,2.1122,2.8097,3.1269c0.9524,1.014,1.8717,2.0435,2.8314,3.0209c1.946,1.9298,3.8124,3.8759,5.7896,5.6502
		c3.8475,3.6573,7.8478,6.8934,11.7443,9.9551c15.8193,12.0181,31.501,19.2763,44.7292,23.3359
		c9.9712,3.071,18.5236,4.4789,25.2233,5.1241c-43.0964,12.1456-85.9811,23.003-128.7079,31.4006
		c-23.2335,4.5092-46.3823,8.5438-69.4729,11.4078c-2.8835,0.383-5.7642,0.7657-8.642,1.1479
		c-2.8846,0.3086-5.7664,0.6169-8.6451,0.9249c-5.7594,0.5905-11.5009,1.271-17.2416,1.7869
		c-11.4914,0.8752-22.9279,1.9247-34.3416,2.3296c-11.4055,0.7108-22.7704,0.7455-34.0822,0.9661l-2.1204,0.0351l-2.118-0.0337
		l-4.2324-0.0669c-2.8202-0.0442-5.637-0.0883-8.4506-0.1323c-2.8137-0.0435-5.6241-0.0869-8.4312-0.1302
		c-2.8054-0.0786-5.6025-0.2646-8.399-0.3909c-5.5924-0.2794-11.1713-0.558-16.7365-0.836
		c-4.986-0.4045-9.957-0.8079-14.9207-1.2106c-2.9691-2.0078-6.2621-4.379-9.8028-7.2361
		c-7.5832-6.1218-16.2291-14.4125-24.6109-25.2838c-8.2357-10.9473-16.2748-24.4871-21.8295-40.6739
		c-5.6086-16.1112-8.873-34.7775-7.9109-54.6274c0.4533-9.9137,2.0288-20.091,4.8026-30.2365
		c0.7251-2.5283,1.389-5.0904,2.2999-7.5989c0.4252-1.262,0.8518-2.5284,1.28-3.7993c0.4888-1.2488,0.9794-2.5018,1.4716-3.7591
		c0.5105-1.2495,0.9531-2.5294,1.52-3.765c0.5605-1.2372,1.1229-2.4785,1.687-3.7238c1.0716-2.5331,2.4067-4.8735,3.6302-7.3185
		c2.6656-4.7629,5.6454-9.4094,8.9766-13.8718c3.3988-4.4113,7.1221-8.6368,11.1751-12.6113
		c4.0725-3.9564,8.521-7.5939,13.228-10.9467c1.1983-0.8088,2.3578-1.6793,3.5902-2.4478c1.231-0.7694,2.4648-1.5406,3.7015-2.3136
		c2.5371-1.4393,5.0765-2.8996,7.7336-4.1655c5.2786-2.5922,10.7972-4.8044,16.5007-6.5857
		c5.7164-1.7399,11.6117-3.0331,17.6112-3.8606c5.9994-0.8155,12.1066-1.2025,18.2405-1.0054
		c6.1322,0.1985,12.2837,0.9005,18.3735,2.1129c6.0884,1.2124,12.0547,2.8986,17.7783,5.1323
		c1.4558,0.4918,2.8438,1.1533,4.2593,1.737l2.1136,0.8957l2.0247,0.9793l2.0196,0.9769l1.9612,1.0773l1.9583,1.0751l1.8964,1.1706
		c10.1104,6.2316,18.7418,14.4758,25.3568,23.9252c6.6363,9.4418,11.2318,20.0761,13.6742,30.9596
		c2.4471,10.8871,2.7808,22.0239,1.0989,32.6072c-0.8329,5.2936-2.1489,10.4513-3.8803,15.403l-0.6418,1.8578l-0.7325,1.8177
		c-0.4955,1.2036-0.9507,2.4412-1.51,3.5717c-0.5305,1.1564-1.0543,2.3132-1.6671,3.4182l-0.8787,1.6771l-0.9578,1.624
		c-5.1143,8.6431-11.9739,15.9354-19.7935,21.3796c-7.806,5.4732-16.4888,9.1726-25.2173,11.1188
		c-8.7368,1.9573-17.5071,2.1693-25.7069,0.9878c-4.0991-0.611-8.0552-1.5676-11.829-2.7907
		c-1.8983-0.5853-3.7156-1.3232-5.5245-2.0249c-0.8748-0.3902-1.7437-0.7777-2.6066-1.1625
		c-0.8437-0.4271-1.6815-0.8513-2.5134-1.2723c-6.5837-3.5323-12.0926-8.1757-16.4225-13.2426
		c-4.3613-5.0601-7.5029-10.5628-9.7025-15.913c-1.1104-2.6768-1.921-5.3398-2.6001-7.9078
		c-0.6373-2.5787-1.0939-5.0759-1.3791-7.4651c-0.5961-4.7798-0.4883-9.1042-0.14-12.8231c0.1701-1.8638,0.4539-3.5693,0.711-5.1346
		c0.3354-1.5463,0.5959-2.9662,0.9551-4.2029c0.1662-0.623,0.3224-1.209,0.4688-1.7576c0.1721-0.5413,0.3325-1.0457,0.481-1.5126
		c0.2842-0.9402,0.5544-1.7193,0.799-2.3356c0.4638-1.2449,0.7014-1.8828,0.7014-1.8828s-0.2988,0.6121-0.882,1.8068
		c-0.3042,0.5935-0.6489,1.3463-1.0223,2.2606c-0.1932,0.4553-0.4018,0.947-0.6258,1.4748
		c-0.1984,0.5381-0.4104,1.113-0.6357,1.7242c-0.4778,1.2166-0.8716,2.6221-1.3539,4.1655c-0.4041,1.5624-0.8483,3.2767-1.19,5.1675
		c-0.6908,3.7727-1.1885,8.2253-0.9836,13.2587c0.0899,2.5158,0.3517,5.1708,0.8043,7.9431
		c0.4944,2.7615,1.1304,5.6537,2.0883,8.5979c1.8954,5.8832,4.8201,12.0783,9.1785,17.9603
		c4.3251,5.8846,10.0558,11.4791,17.1737,15.9449c0.9023,0.5361,1.8112,1.0761,2.7264,1.6198
		c0.9419,0.498,1.8904,0.9995,2.8453,1.5043c1.9338,0.9075,3.8908,1.8499,5.9481,2.6375c4.0905,1.6271,8.4335,2.976,12.9891,3.9459
		c9.111,1.8995,19.0732,2.2688,29.2027,0.5898c10.1182-1.6671,20.3956-5.3901,29.8494-11.3414
		c9.4618-5.9155,18.02-14.1606,24.5697-24.2224l1.2236-1.8939l1.1371-1.9557c0.7833-1.2952,1.4717-2.6459,2.1621-4.0034
		c0.7286-1.3521,1.3055-2.7253,1.9352-4.1005l0.9271-2.0708l0.832-2.1205c2.2314-5.6614,3.991-11.6171,5.1832-17.7767
		c2.4031-12.3148,2.4436-25.4508-0.0986-38.4005c-2.5344-12.9453-7.6878-25.7118-15.3959-37.1404
		c-7.6786-11.4338-17.9117-21.5123-29.9884-29.1187l-2.268-1.4235l-2.3357-1.3162l-2.3464-1.3079l-2.4091-1.195l-2.4171-1.1846
		l-2.4348-1.0564c-1.6315-0.6885-3.2367-1.4489-4.9171-2.036c-6.6153-2.6125-13.5344-4.5956-20.6035-6.0039
		c-7.0707-1.4088-14.2197-2.2044-21.3368-2.3957c-7.1191-0.1901-14.1979,0.3043-21.1344,1.3181
		c-6.9368,1.0257-13.7347,2.6077-20.304,4.7145c-6.5564,2.1481-12.8786,4.8052-18.9,7.9063
		c-3.0283,1.5203-5.9244,3.2512-8.8012,4.9749c-1.403,0.9191-2.8027,1.8361-4.1992,2.7509
		c-1.3939,0.9174-2.7113,1.9406-4.0626,2.9047c-5.3198,3.9744-10.3107,8.2816-14.8492,12.9381
		c-4.5192,4.6744-8.631,9.6292-12.3389,14.7785c-3.6403,5.2002-6.8483,10.5911-9.6663,16.0863
		c-10.7726,22.0812-15.6517,45.1927-15.5711,66.7433c0.0231,21.5658,4.696,41.3533,11.6898,58.0342
		c6.9478,16.7642,16.3542,30.3506,25.709,41.0533c9.5086,10.6275,19.0374,18.3933,27.2511,23.9678
		c2.6045,1.7658,5.0585,3.2917,7.3698,4.6547c-4.7132-0.5056-9.4213-1.0106-14.1139-1.5139
		c-5.4637-0.7322-10.9222-1.4034-16.352-2.1772c-43.4255-6.3417-85.2935-16.9324-124.8867-30.838
		c-39.6066-13.902-76.9105-31.1938-111.4965-50.8842c-17.2943-9.8492-33.9113-20.3065-49.8186-31.2619
		c-3.9435-2.7858-7.9349-5.4745-11.7976-8.3083c-3.8589-2.8398-7.7024-5.6682-11.53-8.485c-3.7609-2.906-7.5064-5.8-11.2363-8.6819
		c-3.7072-2.9111-7.3154-5.9144-10.9555-8.8474c-14.4242-11.897-28.1112-24.1862-41.0616-36.7592
		c-3.2068-3.1752-6.3987-6.3357-9.5756-9.4813c-3.0974-3.2242-6.1801-6.4333-9.248-9.6268
		c-1.5503-1.5822-3.0416-3.2116-4.5216-4.8443c-1.4861-1.6272-2.9688-3.2505-4.4476-4.8698
		c-1.473-1.6246-2.9686-3.2225-4.4135-4.8579c-1.4304-1.6483-2.8572-3.2925-4.2804-4.9326
		c-5.7623-6.5028-11.1696-13.1931-16.5781-19.7678c-2.6254-3.3511-5.2371-6.6846-7.8348-10.0002l-1.9424-2.4867l-1.8784-2.5247
		c-1.2509-1.681-2.4983-3.3573-3.7423-5.0291c-9.9146-13.4009-19.1801-26.8445-27.6378-40.3547
		c-1.0692-1.6815-2.1351-3.358-3.1978-5.0295c-1.0249-1.6948-2.0467-3.3846-3.0654-5.0692
		c-2.0223-3.3785-4.0706-6.715-6.0383-10.0707c-3.8353-6.7685-7.7251-13.3997-11.2502-20.1195
		c-0.8995-1.6702-1.796-3.335-2.6896-4.9944l-1.3385-2.4851l-1.2744-2.5077c-0.9941-1.9567-1.976-3.8894-2.9622-5.8307
		c0.0724,0.1119,0.1376,0.2183,0.2133,0.3325c0.8674,1.3397,1.8244,2.9316,3.0751,4.5964c0.6128,0.8471,1.2598,1.7414,1.9398,2.6815
		c0.7296,0.9045,1.4947,1.8531,2.2942,2.8444c0.4055,0.4929,0.8073,1.0107,1.2436,1.5141c0.446,0.4952,0.9011,1.0004,1.3651,1.5156
		c0.9429,1.0172,1.8719,2.1378,2.9556,3.1698c4.1801,4.2983,9.3826,8.8491,15.743,13.1137
		c6.3519,4.2645,13.8604,8.2382,22.4277,11.381c4.293,1.525,8.8292,2.92,13.6146,3.9142c4.7707,1.0748,9.7811,1.7665,14.9542,2.1426
		c10.3439,0.7423,21.4009-0.0307,32.4739-2.7382c5.5497-1.2999,11.0621-3.1941,16.4874-5.4938
		c1.3435-0.6045,2.7305-1.1334,4.0485-1.8173c1.3284-0.6635,2.6613-1.3293,3.9987-1.9973c2.6056-1.4611,5.254-2.8992,7.7681-4.5831
		l1.9041-1.2271c0.6256-0.3759,1.2923-0.9399,1.9326-1.403c1.2811-0.9878,2.5966-1.9254,3.8177-2.9693
		c1.1741-1.1014,2.3442-2.1993,3.5103-3.2933c0.5994-0.5302,1.1101-1.1461,1.6351-1.7457l1.5629-1.8029
		c0.511-0.6069,1.0475-1.1912,1.5283-1.8174l1.3666-1.9324c0.8776-1.3062,1.866-2.5323,2.5807-3.9241
		c0.7655-1.3592,1.5285-2.712,2.2596-4.0706c0.6174-1.4142,1.2321-2.8225,1.8442-4.2246c2.2079-5.6945,3.6295-11.5641,4.059-17.393
		c0.1483-1.45,0.0957-2.9092,0.1401-4.3475c0.0065-0.7195,0.013-1.437,0.0194-2.1525c-0.0563-0.7141-0.1124-1.4261-0.1683-2.1362
		c-0.1396-1.4163-0.1857-2.8303-0.4214-4.2141c-0.2548-1.3787-0.5081-2.7491-0.7599-4.1111
		c-1.2784-5.3729-3.0376-10.5033-5.6172-15.013c-1.1325-2.3356-2.6618-4.3882-4.0441-6.4598l-0.5261-0.7692l-0.6458-0.7953
		c-0.4365-0.5239-0.8712-1.0457-1.3042-1.5653c-0.4412-0.5103-0.9468-0.9642-1.417-1.4396c-0.491-0.4564-0.9286-0.959-1.4618-1.3594
		c-4.0468-3.4357-8.7244-5.7008-13.3929-6.7692c-4.6853-1.0405-9.3303-0.9523-13.5062-0.0092
		c-4.1848,0.9376-7.8887,2.7305-10.9082,4.9464c-0.387,0.2882-0.7473,0.506-1.1425,0.8474
		c-0.3891,0.3369-0.782,0.6587-1.1447,1.0071c-0.345,0.3658-0.6875,0.7289-1.0273,1.0894c-0.3016,0.39-0.601,0.7771-0.8979,1.1612
		c-1.1152,1.5851-1.8875,3.2964-2.3505,4.998c-0.9517,3.415-0.5882,6.7603,0.4208,9.4548c0.5413,1.3392,1.1724,2.5634,1.9711,3.5774
		l0.2834,0.3849l0.0703,0.095l0.0656,0.0896l0.0179,0.0193l0.0356,0.0388l0.142,0.1543l0.2922,0.3138l0.4015,0.3838
		c0.5295,0.4849,1.0494,0.816,1.6041,1.1163c2.2327,1.1454,4.5304,1.0357,6.175,0.395c0.8425-0.3243,1.4999-0.7448,2.1009-1.2343
		c0.2255-0.1945,0.5441-0.5447,0.7152-0.8129c0.1813-0.2961,0.3266-0.5869,0.4134-0.8774c0.3601-1.1683,0.078-2.0778-0.17-2.5764
		c-0.1243-0.2577-0.2464-0.4346-0.335-0.5453c-0.087-0.1112-0.131-0.1675-0.131-0.1675s0.0295,0.0648,0.0879,0.1929
		c0.0592,0.1254,0.1352,0.3219,0.1935,0.5855c0.1263,0.5109,0.1595,1.3701-0.3333,2.2132
		c-0.8534,1.6378-4.6537,2.6522-7.2634,0.5217c-0.3038-0.2567-0.6223-0.575-0.8328-0.88l-0.1536-0.2149l-0.2117-0.3414
		l-0.1095-0.1788l-0.0275-0.0449l-0.0137-0.0225c-0.0157-0.0223,0.0837,0.1125,0.0372,0.0454l-0.0389-0.0848l-0.1567-0.3399
		c-0.4603-0.8865-0.7347-1.8973-0.9432-2.9289c-0.3455-2.0826-0.1315-4.4159,0.8995-6.5024
		c0.5019-1.041,1.1826-2.0151,2.0245-2.8488c0.2184-0.1979,0.4384-0.3975,0.6602-0.5984c0.2391-0.1765,0.4801-0.3544,0.7228-0.5335
		c0.2509-0.1659,0.5214-0.3081,0.7757-0.4684c0.248-0.1578,0.6259-0.3098,0.9327-0.4672c2.5598-1.2946,5.4656-2.1445,8.5228-2.3506
		c3.0527-0.2116,6.2491,0.2202,9.273,1.342c3.0151,1.154,5.8027,3.0426,8.0586,5.4863c0.3095,0.2767,0.5278,0.649,0.8002,0.9641
		c0.2524,0.3349,0.541,0.6371,0.7722,0.9908l0.6842,1.0685l0.3489,0.5334l0.3391,0.6554c0.8841,1.7593,1.9288,3.4514,2.5923,5.3568
		c1.6459,3.659,2.559,7.696,3.192,11.7949c0.1038,1.0345,0.2083,2.0753,0.3133,3.1224c0.1001,1.0443,0.0244,2.1095,0.0569,3.1665
		l0.0192,1.5915l-0.1453,1.597c-0.1204,1.0637-0.1276,2.1398-0.3185,3.2026c-0.6007,4.2773-1.9156,8.4964-3.6891,12.5514
		c-0.4838,0.9958-0.9697,1.996-1.4578,3.0005c-0.5808,0.9509-1.164,1.9059-1.7496,2.8646c-0.5251,0.996-1.3021,1.8301-1.9487,2.7529
		l-1.0056,1.3645c-0.3558,0.4395-0.7623,0.8392-1.1384,1.2642l-1.1442,1.2654c-0.3807,0.4233-0.7427,0.8661-1.1902,1.2278
		c-0.8449,0.7707-1.6928,1.544-2.5435,2.3199c-0.8848,0.7363-1.8508,1.3836-2.7658,2.0963
		c-0.4881,0.3463-0.8693,0.7109-1.4429,1.0501l-1.6193,1.036c-2.1304,1.437-4.3719,2.6552-6.5612,3.93
		c-1.1246,0.582-2.2454,1.1622-3.3624,1.7402c-1.104,0.6067-2.2728,1.0654-3.3977,1.6087c-4.55,2.0539-9.1613,3.8345-13.8318,5.1476
		c-9.3104,2.731-18.7091,4.0417-27.7262,4.1607c-4.5077,0.0535-8.9309-0.1298-13.2037-0.6464
		c-4.2871-0.436-8.4135-1.2232-12.3868-2.1182c-7.9253-1.8816-15.1581-4.512-21.5231-7.5275
		c-12.7646-6.0474-21.9102-13.5341-27.8274-19.0653c-1.5239-1.3561-2.7495-2.6837-3.8634-3.7995
		c-1.1271-1.1064-2.0147-2.1021-2.7306-2.9113c-0.514-0.5687-0.9371-1.0369-1.2756-1.4113
		c-1.5193-3.0068-2.9116-6.0531-4.368-9.0444c-1.5581-3.2952-3.1799-6.5344-4.6168-9.8297
		c-1.4742-3.2791-2.9379-6.5347-4.3909-9.7668c-1.4767-3.2226-2.7694-6.4958-4.1483-9.7046
		c-1.3327-3.2278-2.7554-6.3923-3.9868-9.6049c-1.2608-3.2015-2.5118-6.3785-3.7532-9.5308
		c-1.2739-3.1407-2.4028-6.3073-3.5536-9.4376c-1.1484-3.1318-2.2876-6.2383-3.4175-9.3196
		c-1.0569-3.1072-2.105-6.1887-3.1444-9.2445c-1.0305-3.059-2.105-6.076-3.023-9.1141
		c-15.5391-48.3737-23.6295-91.6233-27.9898-127.1468c-0.507-4.4491-0.9998-8.7739-1.4782-12.9726
		c-0.0024-0.0269-0.0047-0.0526-0.0071-0.0795c0.1106,0.3381,0.2274,0.6952,0.3563,1.0889
		c0.4445,1.3356,0.9945,2.9882,1.6443,4.9405c0.7007,1.9345,1.6171,4.1227,2.6031,6.6177c0.514,1.2368,0.9951,2.5778,1.6212,3.9271
		c0.6312,1.3498,1.293,2.7654,1.9847,4.2448c0.7032,1.4761,1.4046,3.0388,2.2031,4.6269c0.8436,1.5654,1.7195,3.191,2.6269,4.8748
		c3.6039,6.7697,8.3431,14.1437,14.0941,21.9738c1.4918,1.9194,3.019,3.8843,4.5803,5.8931
		c1.5736,2.0047,3.3399,3.9153,5.0667,5.9418c0.879,0.9984,1.7434,2.0323,2.6642,3.0298c0.9428,0.9772,1.8947,1.9637,2.8555,2.9595
		c1.9409,1.9744,3.8462,4.0735,5.994,5.9841c2.1215,1.9379,4.2188,3.9925,6.4836,5.9238c2.2932,1.9052,4.6224,3.8405,6.9859,5.8042
		c2.47,1.8375,4.9759,3.7017,7.5159,5.5911c2.579,1.8405,5.3008,3.5524,8.011,5.3634
		c11.0063,6.9832,23.3463,13.1525,36.8229,17.9686c13.4883,4.7423,28.2094,8.0508,43.6794,8.6729
		c15.4582,0.6237,30.834-1.5928,44.7921-6.9279c13.9196-5.4077,25.9157-13.7774,35.2406-23.723
		c4.6837-4.9567,8.6309-10.3929,11.7959-16.0484c3.1494-5.6593,5.6355-11.4951,7.1684-17.3912
		c0.2374-0.7205,0.3821-1.4668,0.5389-2.2048c0.1558-0.7371,0.3109-1.471,0.4653-2.2017c0.1516-0.7292,0.3024-1.4552,0.4526-2.1779
		c0.1059-0.7401,0.2113-1.4769,0.3162-2.2102c0.361-2.9349,0.5675-5.8216,0.5122-8.6372
		c-0.0382-5.6315-0.8493-10.9578-2.0955-15.8661c-2.5407-9.8301-6.9313-17.9514-11.7611-24.1793
		c-4.839-6.2514-10.1161-10.6084-14.7354-13.4998c-4.6422-2.894-8.6085-4.3696-11.294-5.2154
		c-1.3425-0.4384-2.39-0.6799-3.0915-0.8448c-0.6988-0.1674-1.0568-0.2532-1.0568-0.2532s0.3372,0.1488,0.9953,0.4391
		c0.6583,0.2851,1.6381,0.7019,2.8704,1.353c2.4673,1.2684,6.0327,3.3275,9.9619,6.7166
		c3.9142,3.3853,8.1685,8.1327,11.7771,14.3936c3.6082,6.2358,6.5673,14.0014,7.7836,22.8047
		c0.5881,4.3926,0.7712,9.0325,0.3062,13.754c-0.1959,2.3638-0.6205,4.7372-1.1494,7.1079
		c-0.1434,0.5895-0.2875,1.1817-0.4323,1.7766c-0.187,0.5931-0.3748,1.189-0.5635,1.7874
		c-0.1859,0.5971-0.3726,1.1968-0.5601,1.7991c-0.1856,0.6018-0.3561,1.2097-0.618,1.7944
		c-0.4725,1.1797-0.9491,2.3694-1.4296,3.569c-0.5257,1.1799-1.1428,2.335-1.7071,3.5158
		c-0.5313,1.1961-1.2647,2.3129-1.9275,3.4671c-0.3358,0.5745-0.6728,1.1511-1.011,1.7299
		c-0.355,0.5693-0.7609,1.1142-1.1386,1.6755c-3.0051,4.4971-6.6219,8.7956-10.8306,12.6923
		c-8.3631,7.8213-18.8284,14.329-30.5425,18.4097c-11.7295,4.0115-24.884,5.7167-38.3421,5.1668
		c-13.4912-0.5386-26.6971-3.2021-39.0904-7.0804c-12.3858-3.9479-24.0222-9.0118-34.6095-14.7995
		c-2.6086-1.5135-5.2459-2.9212-7.7613-4.4559c-2.4942-1.5775-4.955-3.1337-7.3804-4.6678c-2.3546-1.6505-4.675-3.277-6.9595-4.8783
		c-2.2733-1.6234-4.3964-3.3722-6.5588-5.0068c-2.1885-1.6074-4.1509-3.407-6.1626-5.0864
		c-1.0001-0.8482-1.991-1.6886-2.9724-2.5209c-0.9632-0.8526-1.8733-1.743-2.8011-2.5994
		c-1.8243-1.7424-3.7012-3.3752-5.3961-5.1093c-1.6959-1.7397-3.3549-3.4413-4.9753-5.1036
		c-12.7662-13.5385-21.3015-26.2513-26.7766-35.2665c-1.334-2.277-2.5783-4.2816-3.5739-6.0623
		c-0.9557-1.8037-1.7646-3.3304-2.4185-4.5643c-0.473-0.8832-0.8619-1.6098-1.1715-2.1879
		c-0.3312-3.6855-0.655-7.2897-0.9683-10.777c-0.3943-3.9531-0.6061-7.7897-0.8496-11.4941
		c-0.2217-3.7053-0.5132-7.2778-0.6545-10.7242c-0.6353-13.7839-0.848-25.468-0.8055-34.9099
		c0.0442-4.722,0.0831-8.8834,0.1166-12.4694c0.1232-3.5845,0.2267-6.5938,0.3099-9.0131c0.1649-4.8403,0.2493-7.3199,0.2493-7.3199
		s-0.1507,2.4764-0.4449,7.3104c-0.1464,2.4178-0.3284,5.4254-0.5452,9.0076c-0.1251,3.587-0.2703,7.7496-0.4351,12.4728
		c-0.2811,9.4492-0.3582,21.1523-0.0536,34.9825c0.0586,3.4581,0.265,7.0437,0.3992,10.7643
		c0.1559,3.7196,0.2778,7.5735,0.5802,11.546c0.2642,3.9758,0.537,8.0805,0.8182,12.3124c0.3834,4.2245,0.7783,8.576,1.1846,13.0525
		c3.5651,35.757,10.746,79.4189,25.429,128.4875c0.8646,3.0814,1.886,6.1428,2.8636,9.2474
		c0.9873,3.1021,1.9829,6.2302,2.9868,9.3845c1.0784,3.1296,2.1658,6.2851,3.2619,9.4661c1.0995,3.1804,2.1772,6.398,3.4006,9.5911
		c1.1916,3.2053,2.3926,6.4356,3.6028,9.6909c0.3875,1.0712,0.7992,2.137,1.218,3.202c0.0374,0.3245,0.0723,0.6479,0.1192,0.9766
		c1.1351,7.9595,1.567,17.8912-0.0714,29.1458c-0.2236,1.4015-0.4511,2.8273-0.6824,4.2769l-0.1732,1.0904l-0.2528,1.0854
		c-0.1688,0.726-0.339,1.4578-0.5105,2.1954c-0.3617,1.4698-0.6458,2.9813-1.0826,4.4778
		c-0.4578,1.4896-0.9224,3.0014-1.3937,4.5351c-0.2484,0.7618-0.4411,1.5471-0.7386,2.3041c-0.293,0.7581-0.588,1.5214-0.885,2.2899
		c-0.6099,1.5297-1.1553,3.1074-1.8355,4.6525c-1.4616,3.0475-2.8107,6.2393-4.6431,9.2791
		c-1.6298,3.1487-3.7283,6.1116-5.7446,9.2066c-2.2643,2.922-4.4402,6.0135-7.1044,8.7972
		c-5.0433,5.7984-11.095,11.0595-17.995,15.515c-6.8905,4.4515-14.6317,8.1097-23.001,10.4701
		c-8.3546,2.3771-17.3143,3.5098-26.4091,3.0378c-9.089-0.4623-18.2993-2.5486-26.9894-6.3546
		c-8.6744-3.8109-16.9024-9.253-23.8398-16.2094c-3.4736-3.4673-6.6385-7.2888-9.3807-11.4178
		c-2.7234-4.1397-4.9933-8.5978-6.7187-13.2733c-3.4985-9.3206-4.4398-19.6942-2.991-29.8461
		c1.4539-10.1646,5.4656-19.7959,11.3325-27.8189c5.9309-7.9891,13.749-14.4398,22.4966-18.2626
		c8.7194-3.9418,18.3024-4.9291,27.3781-3.3866c9.0668,1.6032,17.5341,5.6628,24.1768,11.4337
		c3.3098,2.885,6.1827,6.2388,8.3851,9.8185c2.2128,3.6051,3.8054,7.5381,4.7556,11.5724
		c1.9152,8.0773,1.2169,16.5203-1.6899,23.7952c-1.4533,3.6423-3.4183,7.0134-5.8146,9.914
		c-2.4016,2.9119-5.2366,5.3928-8.3167,7.3568c-6.1621,3.9475-13.301,5.7516-19.9918,5.2927
		c-6.71-0.4638-12.8729-3.1945-17.5383-7.1658c-4.6691-3.9661-7.9597-9.0859-9.2842-14.3543
		c-0.6771-2.6263-0.9434-5.265-0.8045-7.8025c0.0411-0.6326,0.1406-1.2551,0.2052-1.876c0.0418-0.3089,0.0592-0.6215,0.1199-0.9243
		l0.2043-0.9c0.1445-0.5948,0.2468-1.1971,0.4197-1.7728c0.1938-0.5707,0.3855-1.1353,0.5752-1.694
		c0.165-0.5703,0.4263-1.0942,0.6678-1.6207c0.2483-0.5227,0.4645-1.057,0.7308-1.5575c0.2876-0.4898,0.572-0.9739,0.853-1.4525
		l0.4225-0.7138l0.4837-0.6608c0.3206-0.4395,0.6372-0.8737,0.95-1.3026c0.3304-0.4147,0.6981-0.7893,1.0386-1.1799
		c0.662-0.8037,1.4254-1.4647,2.1563-2.1251c2.962-2.6005,6.2044-4.1879,9.1589-4.95c0.1833-0.0557,0.3649-0.1107,0.5447-0.1653
		c0.1846-0.0318,0.3674-0.0632,0.5483-0.0944c0.3629-0.0622,0.7184-0.1231,1.0667-0.1828c0.3491-0.0555,0.69-0.1288,1.0264-0.167
		c0.3387-0.0139,0.6699-0.0274,0.9935-0.0406c0.6472-0.0095,1.2702-0.0921,1.8564-0.0393c0.5877,0.0532,1.1447,0.1036,1.6705,0.1512
		c0.2636,0.0253,0.5194,0.0499,0.7673,0.0736c0.2426,0.0552,0.4775,0.1086,0.7046,0.1603c0.4557,0.1034,0.8803,0.1998,1.2734,0.2889
		c0.8011,0.1382,1.4163,0.4371,1.9333,0.6123c1.0272,0.3801,1.5535,0.5748,1.5535,0.5748s-0.5123-0.23-1.5121-0.6788
		c-0.5062-0.2102-1.1098-0.5529-1.9052-0.7446c-0.3918-0.116-0.8149-0.2414-1.2692-0.3759
		c-0.2278-0.0673-0.4635-0.1369-0.7068-0.2087c-0.2501-0.0405-0.508-0.0822-0.7739-0.1252
		c-0.5345-0.0826-1.1006-0.1702-1.6981-0.2625c-0.5991-0.0914-1.2391-0.0488-1.9083-0.08c-0.3356-0.0067-0.679-0.0135-1.0302-0.0205
		c-0.3499,0.0177-0.7053,0.0705-1.0705,0.1057c-0.3654,0.0399-0.7385,0.0807-1.1193,0.1223
		c-0.1907,0.0214-0.3834,0.043-0.5779,0.0648c-0.1901,0.0449-0.382,0.0901-0.5757,0.1359
		c-3.1273,0.6076-6.6376,2.0666-9.9377,4.6415c-0.8151,0.6539-1.6678,1.3159-2.4213,2.1273
		c-0.3865,0.3946-0.8015,0.7757-1.1796,1.1987c-0.3605,0.4393-0.7255,0.8841-1.095,1.3344l-0.5578,0.6823l-0.4974,0.7391
		c-0.331,0.4993-0.6659,1.0045-1.0047,1.5156c-0.3171,0.5244-0.5847,1.0859-0.8841,1.6387c-0.2927,0.5566-0.605,1.1135-0.821,1.7214
		c-0.2396,0.5988-0.4818,1.204-0.7264,1.8157c-0.2228,0.6199-0.3745,1.2713-0.5668,1.9181l-0.2752,0.9807
		c-0.084,0.3306-0.1243,0.6719-0.1887,1.0106c-0.1095,0.6804-0.2523,1.3657-0.3345,2.0651
		c-0.3037,2.806-0.1644,5.7742,0.4482,8.7618c1.1965,5.9964,4.593,11.9289,9.6586,16.6592
		c5.0517,4.7313,11.9854,8.2244,19.77,9.0992c7.7634,0.8749,16.1713-0.8834,23.5298-5.2042
		c3.6813-2.1511,7.1104-4.9246,10.0718-8.2569c2.97-3.3405,5.4167-7.2166,7.269-11.4342c3.7119-8.4433,4.8756-18.3693,2.883-28.0593
		c-0.9893-4.8401-2.7606-9.616-5.3193-14.0493c-2.5803-4.45-5.8544-8.4497-9.6857-11.9672
		c-7.6767-7.0032-17.4704-11.97-28.1543-14.0699c-10.6607-2.0599-22.3879-1.0283-32.794,3.5272
		c-10.465,4.4235-19.6469,11.8745-26.6235,21.139c-6.926,9.3267-11.5982,20.492-13.2861,32.2574
		c-1.6872,11.7434-0.5415,23.8445,3.613,34.7136c2.0428,5.4263,4.7123,10.5421,7.8721,15.2405
		c3.1785,4.6871,6.8173,8.9729,10.7822,12.8278c7.9235,7.7296,17.2044,13.653,26.9838,17.7304
		c9.7953,4.0717,20.1283,6.1675,30.204,6.4323c10.0854,0.2765,19.9026-1.2476,28.9455-4.112
		c9.0596-2.8486,17.3262-7.0899,24.5903-12.1442c7.2678-5.0514,13.5628-10.9604,18.6746-17.3109
		c2.7-3.0603,4.8834-6.4181,7.1337-9.5956c2.0012-3.349,4.0629-6.5552,5.6366-9.9304c1.777-3.2677,3.0516-6.6706,4.4258-9.9149
		c0.6363-1.6432,1.1343-3.3147,1.6941-4.9345c0.2711-0.8129,0.5403-1.6202,0.8076-2.4221c0.2711-0.8,0.4366-1.6271,0.6572-2.4299
		c0.4128-1.6128,0.8197-3.2026,1.2206-4.769c0.377-1.5704,0.5992-3.1519,0.8978-4.6878c0.1393-0.77,0.2775-1.5339,0.4146-2.2917
		l0.2041-1.1314l0.1241-1.1349c0.1635-1.5052,0.3242-2.9857,0.4822-4.441c0.8401-8.9405,0.4397-16.9528-0.5176-23.8159
		c1.3149,3.2334,2.5491,6.5293,3.9638,9.7773c1.4068,3.292,2.8238,6.608,4.251,9.9478c1.391,3.3568,2.9675,6.6586,4.4811,10.0178
		c1.5513,3.3414,3.0184,6.7524,4.6703,10.1033c1.6318,3.3612,3.2748,6.7453,4.9287,10.1521l1.2437,2.5593l1.3082,2.5372
		c0.8737,1.6944,1.7504,3.3944,2.6299,5.0999c3.4465,6.8615,7.2618,13.6396,11.0267,20.5592
		c1.9326,3.4313,3.947,6.8448,5.9363,10.3012c1.0026,1.7238,2.0082,3.4528,3.017,5.187c1.0472,1.7112,2.0977,3.4276,3.1513,5.1491
		c8.336,13.8311,17.5003,27.6144,27.3387,41.3719c1.2349,1.7165,2.4733,3.4377,3.7149,5.1636l1.8655,2.5925l1.9303,2.555
		c0.0103,0.0136,0.0208,0.0275,0.0311,0.0411c-0.6608-0.1257-1.4921-0.2838-2.5027-0.4761
		c-2.825-0.5411-6.9978-1.2888-12.3851-2.2059c-10.7784-1.7957-26.428-4.2236-46.0751-5.6191
		c-9.8244-0.647-20.6561-0.9694-32.336-0.5295c-11.6732,0.447-24.2084,1.6805-37.259,4.294
		c-6.5075,1.3331-13.1781,2.9174-19.9035,5.0619c-6.7145,2.1196-13.4337,4.7339-20.0967,7.8079
		c-13.3222,6.1394-26.397,14.2844-38.2653,24.6199c-5.9077,5.192-11.379,10.7856-16.2578,16.761
		c-4.8621,5.9886-9.1544,12.3286-12.7753,18.9085c-3.6015,6.5919-6.4973,13.4333-8.681,20.3325
		c-2.1702,6.8823-3.6886,13.9016-4.2925,20.8843c-0.3215,3.4874-0.4363,6.967-0.2906,10.4135
		c0.1353,3.4429,0.4601,6.8508,1.098,10.1812c0.6246,3.3265,1.4394,6.5868,2.5876,9.6992c1.1281,3.1249,2.4344,6.0876,4.0974,8.9113
		c3.2266,5.6879,7.5131,10.3115,12.1239,14.0308c4.6764,3.6603,9.813,6.319,15.0229,7.9051
		c5.2353,1.5291,10.5405,1.9133,15.3859,1.2503c4.9233-0.6441,9.3033-2.5135,12.7943-4.8486
		c7.0269-4.7418,11.0167-11.0077,12.8456-16.3901c1.8544-5.4443,1.6392-9.9724,1.0491-12.8049
		c-0.2034-1.4474-0.6535-2.4773-0.8749-3.1801c-0.2388-0.696-0.3611-1.0527-0.3611-1.0527s0.0582,0.3737,0.1718,1.1031
		c0.0966,0.7288,0.3587,1.7866,0.3193,3.2121c0.1139,2.7979-0.4067,7.0304-2.8114,11.6541
		c-2.3514,4.5815-6.7568,9.5511-13.1041,12.6828c-3.1696,1.5496-6.7662,2.5312-10.5966,2.5528
		c-3.8866,0.0431-7.9611-0.751-11.9224-2.4051c-3.9407-1.7166-7.7621-4.25-11.1483-7.5043c-3.3232-3.3072-6.3204-7.25-8.339-11.7509
		c-1.0566-2.2109-1.898-4.6857-2.5663-7.187c-0.6989-2.5065-1.1273-5.1448-1.4213-7.8375c-0.307-2.6921-0.3602-5.4744-0.2717-8.2952
		c0.0778-2.8214,0.3677-5.6955,0.8243-8.5916c0.8756-5.8017,2.4941-11.6648,4.6656-17.5242
		c2.1747-5.8412,4.9066-11.6112,8.2107-17.198c3.3254-5.5757,7.1905-10.9768,11.532-16.1386
		c4.3595-5.1495,9.2224-10.0311,14.4629-14.6401c10.5337-9.1722,22.1343-16.7342,34.0366-22.7171
		c5.9506-2.9954,11.9661-5.6371,17.9964-7.8726c6.0076-2.2502,12.0955-4.0671,18.0988-5.702
		c24.0621-6.41,46.9185-8.4519,66.15-9.376c19.2737-0.7928,35.038-0.5538,45.9282-0.3873
		c7.6799,0.1412,12.9324,0.2377,15.3751,0.2827c2.4952,3.2908,5.002,6.5968,7.5228,9.9214
		c5.3839,6.7617,10.773,13.642,16.5254,20.3394c1.4211,1.6887,2.8458,3.3816,4.2741,5.0787
		c1.4432,1.6843,2.9375,3.3314,4.4098,5.0052c1.4786,1.6686,2.9609,3.3413,4.4468,5.0181c1.4801,1.6824,2.972,3.3615,4.5232,4.9933
		c3.0716,3.2932,6.158,6.6024,9.259,9.9272c3.184,3.246,6.383,6.5073,9.597,9.7839c12.986,12.9778,26.7372,25.6776,41.256,37.9863
		c3.6636,3.0358,7.2976,6.1423,11.0322,9.1564c3.7591,2.9846,7.534,5.9816,11.3245,8.991
		c3.8608,2.9192,7.7375,5.8505,11.6299,8.7936c3.898,2.9366,7.9263,5.7278,11.9092,8.6161
		c16.0642,11.3652,32.8701,22.2291,50.3869,32.4771c25.2913,14.7915,52.0765,28.3076,80.1887,40.1772
		c11.2872,10.2118,23.1023,22.4024,34.6577,36.8749c11.547,14.5071,22.8474,31.3041,32.7855,50.5407
		c9.9545,19.2096,18.5876,40.8392,24.7385,64.5984c6.1274,23.7382,9.923,49.6199,9.5847,76.8445
		c-0.3124,27.1964-5.1346,55.6713-15.0759,83.6501c-9.9163,27.9653-25.134,55.3741-45.5857,79.9446
		c-20.4099,24.5663-46.1005,46.2517-75.9758,62.5594c-14.9258,8.1527-30.8768,14.9379-47.5638,20.1705
		c-16.6816,5.2377-34.126,8.8539-51.9781,10.5382c-8.9247,0.8291-17.9534,1.2021-27.019,0.9585
		c-9.0659-0.2395-18.1704-1.0338-27.2447-2.3882c-9.0775-1.3381-18.1111-3.308-27.0417-5.8159
		c-8.9267-2.5194-17.7641-5.564-26.3846-9.2523c-34.5218-14.6111-66.0334-38.5394-89.6965-69.5302
		c-5.8922-7.7556-11.3538-15.8987-16.2308-24.4287c-4.8539-8.5399-9.2426-17.401-12.9505-26.5869
		c-7.4444-18.3496-12.5193-37.8667-14.7546-57.8448c-2.216-19.972-1.4864-40.4474,2.7903-60.3622l0.8177-3.731l0.9304-3.7078
		c0.5862-2.4821,1.3578-4.9167,2.0386-7.3778c1.5253-4.873,3.1205-9.7389,5.0386-14.4919
		c3.7043-9.5576,8.3209-18.7814,13.5533-27.6617c21.0891-35.4839,53.8948-63.1407,91.2203-77.9975
		c9.3367-3.7038,18.9189-6.6887,28.6396-8.8922c9.7331-2.1442,19.5967-3.509,29.4656-4.0305
		c9.8702-0.4763,19.7383-0.0654,29.4443,1.2293c9.7072,1.3088,19.2297,3.6093,28.4529,6.6471
		c9.2105,3.0886,18.084,7.0304,26.5294,11.6516c8.4216,4.6686,16.3752,10.0811,23.7792,16.0927
		c14.7499,12.0982,27.162,26.7396,36.5502,42.9167c4.7332,8.0663,8.686,16.5291,11.8544,25.2208
		c3.1664,8.6901,5.6168,17.5989,7.1531,26.6167c3.0601,18.0204,2.9033,36.434-0.965,53.8727
		c-3.8139,17.4344-11.105,33.8698-21.2062,48.049c-10.0654,14.1915-22.6472,26.345-36.8876,35.5151
		c-14.213,9.2037-29.9781,15.5361-46.0872,18.7604c-16.1068,3.2251-32.6069,3.2784-48.1581-0.0297
		c-15.5548-3.2885-30.0611-9.9652-42.4828-18.9739c-12.438-9.0065-22.8197-20.3347-30.5323-32.9357
		c-7.7222-12.6025-12.7548-26.4719-15.0311-40.4624c-2.2051-14.0098-1.5438-28.1321,1.7945-41.2593
		c1.687-6.5618,4.1194-12.8347,7.0786-18.7395c2.958-5.907,6.4886-11.4491,10.5513-16.4567
		c4.0368-5.0266,8.4955-9.603,13.2697-13.6886c4.829-4.0212,9.9516-7.5441,15.2626-10.5664
		c21.3164-11.9629,45.8914-15.2236,66.6861-9.2412c1.296,0.3689,2.5665,0.8069,3.8427,1.204l1.9063,0.6082l1.8525,0.7318
		c1.2306,0.4916,2.4557,0.9811,3.6754,1.4684c1.1838,0.5692,2.3622,1.1359,3.5353,1.7c0.5843,0.2864,1.1772,0.5535,1.7507,0.854
		l1.6852,0.9595c1.1191,0.6414,2.2332,1.2798,3.342,1.9152c1.0641,0.7079,2.1234,1.4124,3.1775,2.1136l1.5748,1.0536l1.4934,1.1512
		c7.9991,6.0503,14.6666,13.2374,19.5932,21.0721c4.9755,7.8018,8.3919,16.0983,10.3618,24.3049
		c1.9769,8.2113,2.5183,16.329,1.8937,23.9105c-0.6192,7.5886-2.408,14.6337-4.9501,20.8783
		c-0.3137,0.7834-0.6248,1.5605-0.9333,2.3312c-0.3542,0.75-0.7388,1.4788-1.1019,2.2098c-0.3674,0.729-0.7318,1.4519-1.093,2.1687
		c-0.1837,0.3567-0.3536,0.7191-0.5464,1.0668l-0.6255,1.0104c-0.8304,1.3416-1.6463,2.6594-2.4474,3.9535
		c-0.9124,1.2184-1.8079,2.4144-2.6866,3.5879c-7.2043,9.3102-15.6014,15.1-22.6909,18.7692
		c-7.1533,3.6727-13.1322,5.2784-17.1353,6.1727c-2.015,0.4172-3.5471,0.6954-4.5806,0.8279
		c-1.0309,0.1508-1.5526,0.2271-1.5526,0.2271s0.5219-0.0746,1.5533-0.2219c1.0341-0.129,2.5673-0.4019,4.5845-0.8114
		c4.0081-0.8795,9.9959-2.459,17.181-6.0962c7.1211-3.6355,15.5773-9.3765,22.8932-18.6687c0.8932-1.172,1.8036-2.3665,2.731-3.5833
		c0.8173-1.2941,1.6495-2.6119,2.4967-3.9534l0.6387-1.0111c0.1972-0.3479,0.3716-0.7108,0.5598-1.0679
		c0.3704-0.7178,0.744-1.4418,1.1207-2.172c0.3725-0.7323,0.7668-1.4628,1.1307-2.2146c0.3185-0.7728,0.6395-1.552,0.9632-2.3376
		c2.6242-6.2639,4.5009-13.3492,5.2131-21.0052c0.7168-7.6489,0.2704-15.8621-1.6238-24.2058
		c-1.8883-8.339-5.2408-16.8038-10.1895-24.8129c-4.9005-8.0414-11.5804-15.4711-19.6573-21.7841l-1.5092-1.2003l-1.5923-1.1024
		c-1.0675-0.734-2.1401-1.4714-3.2177-2.2124c-1.1136-0.6843-2.2537-1.339-3.3889-2.0149l-1.7114-1.0096
		c-0.5826-0.3173-1.1848-0.6011-1.7787-0.9043c-1.1935-0.5974-2.3926-1.1976-3.597-1.8007
		c-1.2428-0.5206-2.4912-1.0436-3.7452-1.569l-1.8906-0.7817l-1.9465-0.6581c-1.3037-0.4303-2.6032-0.9012-3.9297-1.3027
		c-2.6874-0.6758-5.3722-1.5011-8.1685-1.9343l-2.0889-0.3896c-0.6965-0.1418-1.3981-0.2585-2.1089-0.3215
		c-1.4181-0.1608-2.842-0.3221-4.2719-0.4843c-1.4308-0.1641-2.8806-0.1473-4.331-0.2289l-2.1832-0.0868
		c-0.7294-0.0175-1.4599,0.0364-2.1926,0.0514c-1.4642,0.0548-2.9395,0.0846-4.4147,0.1635
		c-1.4659,0.1512-2.9376,0.3031-4.415,0.4556c-11.8008,1.4104-23.7264,5.1301-34.903,11.1147
		c-5.5665,3.0282-10.9573,6.5836-16.0635,10.6714c-5.0501,4.1531-9.7989,8.8275-14.1197,14.0018
		c-4.3465,5.1554-8.162,10.8868-11.3955,17.0355c-3.2335,6.1459-5.9293,12.7041-7.8442,19.5872
		c-3.7947,13.7693-4.7988,28.6632-2.7683,43.5105c2.1076,14.8269,7.1161,29.603,15.0498,43.1698
		c7.9252,13.5499,18.7158,25.8389,31.8165,35.7408c13.0864,9.8944,28.52,17.4067,45.2966,21.3094
		c16.7455,3.9053,34.5542,4.194,51.9794,1.0635c17.4274-3.1455,34.5358-9.6294,50.1385-19.3135
		c15.6018-9.6506,29.4869-22.5618,40.7277-37.8218c11.2611-15.2301,19.5821-33.149,24.079-52.2311
		c2.2731-9.5344,3.5369-19.3601,3.8329-29.2573c0.3089-9.8983-0.3248-19.8717-1.8644-29.7526
		c-1.5336-9.8873-4.062-19.6462-7.3929-29.1768c-3.3303-9.5341-7.5225-18.8302-12.5744-27.7126
		c-10.017-17.8116-23.415-34.0137-39.4789-47.4942c-8.0549-6.6962-16.7243-12.7385-25.9269-17.9658
		c-9.23-5.1735-18.9498-9.6011-29.0671-13.098c-10.1309-3.446-20.6206-6.0767-31.3529-7.6205
		c-10.7427-1.5331-21.6373-2.0519-32.4952-1.6064c-10.8553,0.4935-21.6722,1.9182-32.325,4.1954
		c-10.6397,2.3324-21.1065,5.5308-31.3005,9.5244c-10.1652,4.0431-20.1246,8.9058-29.5933,14.5798
		c-9.4573,5.7051-18.5475,12.1088-27.0033,19.3333c-16.9966,14.3321-31.6831,31.6825-43.2639,51.0093
		c-5.7256,9.6995-10.7408,19.7883-14.7786,30.2344c-2.0834,5.1976-3.8253,10.5165-5.4773,15.8481
		c-0.7444,2.6913-1.5744,5.3561-2.2145,8.0717l-1.0071,4.0579l-0.8871,4.084c-4.6486,21.8473-5.3127,44.2557-2.8122,65.8604
		c5.0643,43.2266,22.3257,83.8553,48.0858,116.799c25.7295,33.0496,59.7244,58.1946,96.7773,73.3092
		c9.2567,3.8109,18.7219,6.9291,28.2657,9.4786c9.5477,2.5376,19.1869,4.4984,28.8588,5.771
		c9.6678,1.2926,19.3515,1.9863,28.9796,2.0895c9.6392,0.1051,19.1698-0.433,28.5715-1.4678
		c37.6302-4.2075,72.8143-16.4366,103.6388-33.9834c30.8048-17.6019,57.0145-40.6771,77.5945-66.5146
		c20.6176-25.8418,35.688-54.4247,45.2668-83.3524c9.6003-28.9381,13.9078-58.1844,13.6591-85.9362
		c-0.2255-27.7687-4.617-53.9331-11.2859-77.8208c-6.6854-23.9179-15.7985-45.5834-26.1658-64.7645
		c-5.1516-9.613-10.691-18.5728-16.3377-26.9702c-5.6857-8.3745-11.5486-16.1442-17.4477-23.3537
		c-11.2776-13.7188-22.7271-25.3216-33.6873-35.1403c10.1647,4.2527,20.4983,8.2939,31.0021,12.095
		c40.3162,14.5975,83.0526,25.8065,127.4904,32.6358c5.5563,0.8347,11.144,1.5648,16.738,2.3536
		c5.6133,0.6422,11.241,1.2859,16.8831,1.9314c5.658,0.4976,11.3303,0.9965,17.0167,1.4966
		c5.6942,0.3222,11.4025,0.6452,17.1246,0.9689c2.8616,0.1473,5.7255,0.3538,8.5954,0.4522
		c2.8708,0.0626,5.7452,0.1252,8.6229,0.1879c2.8779,0.0622,5.7593,0.1244,8.644,0.1866l4.3298,0.0928l2.1669,0.0463l2.1673-0.0226
		c11.5611-0.1548,23.1858-0.133,34.8311-0.7952c11.6647-0.3569,23.33-1.3654,35.0595-2.2083
		c5.8564-0.4995,11.7069-1.1649,17.5798-1.7426c2.9349-0.3021,5.8729-0.6044,8.8139-0.907
		c2.9305-0.3769,5.8641-0.7542,8.8005-1.1318c23.525-2.8261,47.0536-6.845,70.6348-11.3569
		c47.1542-9.1376,94.3062-21.2408,141.521-34.7726c47.2139-13.5671,93.4001-28.212,138.8704-42.5261
		c10.8564-3.4163,21.6707-6.8115,32.4509-10.1731c13.8735-1.4918,30.7247-1.993,49.7777,0.3091
		c20.2738,2.4591,43.0833,8.1949,66.2562,19.0349c11.5759,5.4104,23.192,12.1163,34.4978,20.1938
		c11.2919,8.0937,22.2316,17.6142,32.3878,28.5314c10.1625,10.9141,19.4701,23.2565,27.5499,36.8959
		c8.071,13.6185,14.8993,28.4935,19.7253,44.3494c4.8385,15.8514,7.5885,32.6515,7.4872,49.8871
		c-0.0245,8.6096-0.7009,17.3064-2.0499,25.9821c-1.3909,8.6692-3.4531,17.3113-6.1932,25.8116
		c-2.719,8.5094-6.2025,16.8395-10.3414,24.9109c-4.13,8.077-8.9421,15.8916-14.4364,23.2869
		c-5.4762,7.4045-11.5549,14.4548-18.277,20.9303c-6.7042,6.4918-13.9449,12.5088-21.7579,17.8199
		c-15.5797,10.7367-32.7529,18.6783-50.4319,23.2252c-17.7041,4.4568-35.8462,5.3888-53.2728,2.4813
		c-17.432-2.7493-33.976-9.0408-48.5377-17.845c-14.5696-8.8115-27.0306-20.3479-36.9584-33.3251
		c-9.9148-12.9817-17.2462-27.4437-21.3806-42.2906c-2.0699-7.428-3.3344-14.9227-3.7637-22.3734
		c-0.4348-7.4532-0.0604-14.8527,1.0258-22.0313c2.1694-14.3691,7.1909-27.8113,14.1436-39.454
		c3.4796-5.8252,7.4207-11.2208,11.7516-16.1111c4.3578-4.8672,9.0562-9.2503,13.9569-13.1522
		c4.8795-3.939,10.0712-7.2339,15.3038-10.1022c1.3263-0.6823,2.6025-1.4551,3.9475-2.0554
		c1.3374-0.6209,2.6658-1.2377,3.9852-1.8503c1.3287-0.5925,2.6891-1.0784,4.019-1.6199c0.6686-0.2622,1.3347-0.5234,1.9987-0.7838
		c0.677-0.2208,1.3517-0.4409,2.0239-0.6602c10.73-3.6643,21.4976-5.0023,31.5051-4.6651
		c10.0309,0.3852,19.2782,2.6022,27.3864,5.6426c8.1191,3.0663,15.0956,7.0546,20.8976,11.278
		c5.8136,4.2273,10.4523,8.6848,14.2025,12.7884c1.8048,2.1138,3.5208,4.0372,4.8726,5.9655
		c0.7026,0.9456,1.3723,1.8469,2.0087,2.7034c0.5283,0.8154,1.0278,1.5866,1.5055,2.3237
		c3.1991,6.2615,5.816,13.8987,6.7582,22.5907c0.9694,8.9629,0.2053,19.0782-3.5083,28.9834
		c-3.5944,9.913-10.2529,19.4766-19.4828,26.8593c-9.226,7.355-21.0607,12.4357-33.8467,13.5148
		c-6.3849,0.5638-12.981,0.2383-19.4061-1.1539c-3.2002-0.7349-6.3491-1.7372-9.3602-3.0702
		c-3.0033-1.3485-5.8142-3.1008-8.3341-5.1964l-0.9318-0.8005c-0.3197-0.2574-0.6185-0.535-0.889-0.8402l-1.6832-1.7651
		l-1.4972-1.918c-0.5237-0.6206-0.8854-1.3531-1.3383-2.0203c-1.6671-2.7572-2.9562-5.7397-3.6836-8.8539
		c-0.7184-3.1127-0.9768-6.3041-0.7955-9.4502c0.1602-3.1538,0.9199-6.2262,1.9851-9.1261
		c0.3027-0.7117,0.5201-1.4613,0.8861-2.1405l1.0413-2.0592c0.8171-1.2946,1.5679-2.6356,2.5576-3.7939
		c0.8834-1.2439,1.9922-2.2821,3.0211-3.3829l1.7148-1.4525l0.8588-0.7192l0.9316-0.6205c2.407-1.7733,5.1678-2.947,7.9181-3.9432
		c1.4139-0.3964,2.8036-0.8649,4.2493-1.0654c0.7183-0.1088,1.4221-0.3173,2.1469-0.3474c0.7211-0.0616,1.4399-0.1232,2.1567-0.1844
		c2.8677-0.1057,5.7369,0.0282,8.4648,0.6754c2.7626,0.5157,5.3337,1.5829,7.7616,2.7885
		c4.7596,2.5956,8.6281,6.5109,11.0184,10.9967c2.27,4.5555,3.2722,9.6194,2.8817,14.4065
		c-0.3525,4.7726-1.7495,9.343-4.2279,12.9816c-2.426,3.6669-5.7637,6.4343-9.3992,8.042
		c-3.5964,1.7264-7.4843,2.1409-10.9731,1.6832c-3.5089-0.4592-6.6331-1.8068-9.1471-3.535
		c-2.5364-1.7172-4.4733-3.8179-5.8857-5.9122c-2.8312-4.2428-3.4769-8.3445-3.5496-11.0017
		c-0.0107-0.6736-0.0178-1.2686,0.0293-1.7794c0.0275-0.5121,0.0542-0.9424,0.1107-1.2845
		c0.0902-0.6876,0.1364-1.0399,0.1364-1.0399s-0.0626,0.35-0.1848,1.0331c-0.0725,0.3407-0.119,0.7699-0.1697,1.2828
		c-0.0704,0.5116-0.0902,1.1093-0.1093,1.7892c-0.0428,2.6797,0.4213,6.8768,3.1637,11.3688
		c1.37,2.2166,3.2908,4.4742,5.8737,6.3688c2.5604,1.9037,5.7974,3.4514,9.5262,4.0745c3.7032,0.6226,7.9305,0.3164,11.8783-1.4175
		c3.9833-1.6064,7.7394-4.5189,10.5024-8.4451c2.819-3.899,4.4823-8.8099,5.0044-14.002
		c0.5554-5.2035-0.3674-10.7852-2.7983-15.9541c-2.5675-5.115-6.7792-9.5647-12.0695-12.5918
		c-2.682-1.4124-5.5432-2.6483-8.6013-3.2864c-3.0283-0.7709-6.2076-0.9856-9.3994-0.9169
		c-0.7981,0.0549-1.5985,0.1101-2.4015,0.1654c-0.8069,0.0266-1.594,0.2345-2.3961,0.3458
		c-1.6123,0.2053-3.1746,0.6914-4.7606,1.1187c-3.0988,1.0596-6.214,2.3494-8.9778,4.3149l-1.0626,0.6945
		c-0.3362,0.2576-0.6598,0.5341-0.9906,0.8014c-0.6555,0.5425-1.3239,1.0759-1.9706,1.6348
		c-1.1886,1.2238-2.4489,2.3988-3.4736,3.7931c-1.1312,1.3087-2.0118,2.8115-2.9463,4.2792
		c-0.4011,0.7731-0.8031,1.548-1.2061,2.3246c-0.4176,0.7705-0.6825,1.6115-1.0297,2.4182
		c-1.2419,3.2776-2.1193,6.756-2.3314,10.3284c-0.2332,3.5651,0.0382,7.1907,0.8431,10.7377
		c0.8136,3.5481,2.2653,6.9672,4.1697,10.1273c0.5121,0.7682,0.9376,1.5994,1.5292,2.3156l1.7135,2.1971l1.9253,2.0276
		c0.3135,0.3478,0.6543,0.6652,1.0154,0.9604l1.0603,0.9132c2.8651,2.3859,6.0326,4.3398,9.3522,5.8217
		c3.3267,1.4657,6.7627,2.5417,10.2224,3.3175c6.9387,1.4689,13.9387,1.7554,20.7169,1.0979
		c6.7833-0.6409,13.3646-2.3414,19.3931-4.9016c6.0492-2.5393,11.5436-5.9624,16.3845-9.9104
		c9.6404-7.9757,16.4506-18.2334,19.973-28.7153c3.6456-10.4799,4.1406-21.0284,2.8643-30.2557
		c-1.2852-9.2704-4.3975-17.2676-8.0503-23.6625c-1.8257-3.2057-3.7732-6.0436-5.7716-8.4827
		c-0.9524-1.257-2.0082-2.3405-2.9426-3.4293c-0.8508-0.8525-1.6359-1.6823-2.4324-2.445
		c-2.9736-3.3421-6.4742-6.83-10.6523-10.2419c-5.7252-4.679-12.7141-9.2082-21.0212-12.8594
		c-8.2959-3.6224-17.9105-6.4683-28.5656-7.408c-10.6422-0.8926-22.2639-0.0081-33.9551,3.3931
		c-0.7332,0.2037-1.4689,0.4081-2.2073,0.6132c-0.7247,0.2459-1.4519,0.4927-2.1818,0.7403
		c-1.4529,0.514-2.9408,0.9764-4.396,1.5477c-1.4469,0.5947-2.9036,1.1934-4.3701,1.7962
		c-1.4762,0.5862-2.8807,1.3461-4.3405,2.0206c-5.7623,2.8353-11.5054,6.1512-16.9502,10.1758
		c-5.4669,3.9884-10.7485,8.5244-15.7003,13.6336c-4.9261,5.1335-9.4744,10.8694-13.528,17.1086
		c-8.1029,12.4747-14.1787,27.0747-17.1218,42.9482c-1.472,7.9303-2.1605,16.1691-1.9336,24.5426
		c0.2201,8.3762,1.394,16.8788,3.4697,25.2423c4.1525,16.7521,11.8798,33.016,22.5291,47.6746
		c10.6467,14.6362,24.2791,27.8202,40.4194,37.9965c16.1121,10.1559,34.536,17.502,54.1333,20.8569
		c19.5491,3.5286,40.3423,2.6787,60.2151-2.2155c19.8835-4.9703,38.9474-13.7509,56.1156-25.5758
		c8.6344-5.8745,16.6472-12.5493,24.0228-19.7426c7.3977-7.1798,14.0675-14.9888,20.0507-23.193
		c6.0009-8.1947,11.2352-16.8499,15.7015-25.796c4.476-8.9414,8.208-18.1694,11.0806-27.561
		c2.8948-9.3849,5.0221-18.9056,6.3964-28.4363c1.3325-9.5374,1.911-19.0795,1.7634-28.5083
		c-0.1536-9.4279-1.0059-18.7477-2.6184-27.8299c-1.5966-9.078-3.8674-17.8975-6.6738-26.3934
		c-5.6201-16.9993-13.3494-32.6873-22.3306-46.898c-8.976-14.2092-19.2749-27.0088-30.3799-38.1618
		c-11.1034-11.1642-22.9639-20.7556-35.1122-28.7876c-12.1631-8.0164-24.5737-14.5278-36.839-19.6468
		c-24.5588-10.2567-48.356-15.0565-69.2516-16.5518c-12.635-0.8961-24.2098-0.6179-34.5796,0.3008
		c29.02-8.9732,57.7881-17.6281,86.3582-25.6188c2.7678-0.7788,5.5326-1.5568,8.2943-2.3338
		c2.7682-0.7475,5.5332-1.4942,8.2952-2.24c5.5254-1.4855,11.0382-2.9677,16.5383-4.4465
		c11.0332-2.8018,21.9897-5.7196,32.9637-8.2812c21.8979-5.3723,43.7201-10.0202,65.3833-14.1874
		c43.3379-8.2109,86.2397-13.7543,128.2743-16.9702c61.761-4.7326,121.5824-4.409,178.5316-0.3439
		c5.8696,1.8669,11.9084,4.1733,18.0098,7.0374c4.9167,2.2126,9.804,4.9117,14.7507,7.8227
		c4.9174,2.9713,9.793,6.3342,14.6364,10.0101c4.7845,3.7567,9.5016,7.8606,14.0735,12.3456
		c4.5303,4.5283,8.8872,9.4484,13.0175,14.7385c4.1552,5.2729,7.9323,11.0281,11.451,17.0842
		c3.4905,6.0735,6.708,12.4834,9.3811,19.2664c5.3986,13.5331,9.0564,28.3768,10.2937,43.9551
		c1.2483,15.5653,0.0748,31.8514-3.894,47.9366c-3.9552,16.0779-10.7156,31.9442-20.2885,46.4716
		c-4.7825,7.2622-10.2557,14.1905-16.3835,20.6343c-6.1423,6.431-12.9252,12.3795-20.2675,17.7028
		c-7.3412,5.3248-15.2418,10.0272-23.5874,13.9971c-8.3462,3.9709-17.1703,7.1189-26.269,9.489
		c-4.543,1.2194-9.1864,2.109-13.8572,2.9156c-2.3497,0.3134-4.6963,0.6927-7.0636,0.9364
		c-2.3704,0.2135-4.738,0.5123-7.1272,0.6028c-9.5348,0.5658-19.208,0.3265-28.8116-1.0103
		c-9.5999-1.3157-19.1619-3.4912-28.4421-6.7106c-9.2767-3.2227-18.2975-7.3689-26.884-12.3938
		c-16.6184-9.8049-29.8729-24.643-37.6417-41.7843c-3.9124-8.5499-6.5198-17.6196-7.7684-26.8004
		c-1.2419-9.1857-1.0608-18.4711,0.3752-27.4755c1.4336-9.0125,4.2583-17.7173,8.1046-25.8159
		c3.917-8.0728,8.9292-15.524,14.8173-22.0933c11.8105-13.1162,27.0399-22.6551,43.2723-27.5067
		c16.2191-4.9312,33.364-5.2781,49.0981-1.6143c15.765,3.6346,30.1033,11.256,41.6046,21.336
		c11.5417,10.0728,20.2311,22.5598,25.7393,35.7588c0.6439,1.6681,1.3539,3.3052,1.9023,4.9917
		c0.2892,0.8384,0.5776,1.6745,0.8654,2.5085c0.2546,0.8451,0.5087,1.688,0.762,2.5287c0.5415,1.6732,0.8956,3.3879,1.3536,5.0677
		c0.1638,0.8245,0.327,1.6468,0.4899,2.4669c0.1539,0.8201,0.3523,1.6328,0.421,2.4615c0.8859,6.5792,0.6857,13.2095-0.7263,19.4576
		c-1.3949,6.2491-3.8074,12.1304-7.0067,17.366c-3.2256,5.223-7.2618,9.7584-11.7515,13.5007
		c-8.9989,7.518-19.8347,11.658-30.2291,12.7147c-10.4252,1.0728-20.3949-0.7532-28.6995-4.3945
		c-4.1466-1.8412-7.9507-4.0184-11.3024-6.4981c-0.8503-0.6024-1.6198-1.2887-2.4207-1.9169
		c-0.3962-0.3201-0.7899-0.6382-1.1812-0.9543c-0.3672-0.3433-0.7321-0.6843-1.0945-1.0231
		c-0.7189-0.6845-1.455-1.3367-2.1371-2.0239c-0.6583-0.7114-1.3076-1.4132-1.9481-2.1053
		c-0.6639-0.6745-1.2275-1.4157-1.8029-2.1316c-0.5658-0.7227-1.1605-1.4103-1.6823-2.1342
		c-0.5081-0.735-1.0083-1.4589-1.501-2.1718c-0.244-0.3584-0.4982-0.7071-0.7291-1.0661c-0.2172-0.3676-0.4327-0.7322-0.6466-1.0939
		c-0.4288-0.7244-0.8507-1.437-1.2656-2.1378c-0.4017-0.7085-0.7322-1.439-1.0933-2.1393c-0.3448-0.7079-0.717-1.3903-1.0236-2.0861
		c-0.2916-0.703-0.5778-1.3931-0.8586-2.0702c-2.2175-5.4412-3.2628-10.3605-3.843-14.3547
		c-0.208-2.0085-0.4584-3.7819-0.4576-5.3222c-0.053-1.538-0.1281-2.8336-0.0502-3.8722c0.0768-2.0831,0.1161-3.1503,0.1161-3.1503
		s-0.1056,1.0638-0.3118,3.1403c-0.1417,1.0388-0.1458,2.3379-0.1852,3.8884c-0.0933,1.5529,0.0513,3.348,0.1433,5.3946
		c0.3496,4.0702,1.1193,9.1321,3.0808,14.8402c0.25,0.7117,0.5049,1.437,0.7644,2.176c0.2756,0.733,0.6177,1.4545,0.933,2.2037
		c0.3317,0.7416,0.6334,1.5154,1.0077,2.2693c0.3888,0.7476,0.7842,1.5078,1.1862,2.2805c0.2015,0.3868,0.4048,0.7769,0.6097,1.17
		c0.2189,0.3849,0.4614,0.7601,0.6942,1.1455c0.4723,0.7681,0.9518,1.5482,1.4387,2.3402c0.5027,0.7822,1.0802,1.5303,1.631,2.3156
		c0.5603,0.7786,1.1108,1.5844,1.7645,2.3257c0.6326,0.76,1.274,1.5306,1.9243,2.3118c0.6769,0.7579,1.4105,1.483,2.13,2.2419
		c0.3635,0.3763,0.7295,0.7551,1.0978,1.1363c0.3939,0.3544,0.7903,0.7111,1.1892,1.07c0.8081,0.7061,1.588,1.472,2.4524,2.1553
		c3.4088,2.8035,7.3281,5.3267,11.6678,7.516c8.6885,4.3349,19.364,6.8683,30.8422,6.2264
		c11.4344-0.6255,23.6964-4.6328,34.2051-12.6631c5.2406-3.9961,10.0415-8.9468,13.9692-14.7545
		c3.9012-5.8195,6.9553-12.4548,8.8518-19.6215c1.9135-7.1631,2.4735-14.8795,1.7159-22.6512
		c-0.0525-0.9776-0.2384-1.9402-0.3834-2.912c-0.156-0.9672-0.2977-1.9528-0.4719-2.9135c-0.4283-1.8643-0.7583-3.766-1.282-5.631
		c-0.246-0.937-0.4926-1.8764-0.7397-2.8182c-0.2677-0.9362-0.5679-1.8658-0.8525-2.8031
		c-0.5431-1.8842-1.2544-3.7223-1.9063-5.5936c-5.5707-14.8251-14.7729-29.0939-27.3721-40.8093
		c-12.5509-11.7199-28.5055-20.8549-46.3828-25.4941c-17.8347-4.6684-37.5209-4.794-56.4083,0.4839
		c-18.8833,5.191-36.7992,15.873-50.854,30.9503c-7.0094,7.5471-13.0303,16.1806-17.7668,25.5964
		c-4.6676,9.4455-8.1151,19.6262-9.9382,30.2288c-1.8259,10.5937-2.1523,21.5656-0.7856,32.4317
		c1.3723,10.8618,4.37,21.608,8.937,31.7526c9.0542,20.3244,24.7622,38.058,44.4817,49.6744
		c9.6033,5.625,19.7153,10.2542,30.1125,13.8251c10.4009,3.5684,21.1116,5.959,31.8502,7.3583
		c10.743,1.4207,21.5452,1.6128,32.1724,0.8811c2.6621-0.132,5.3005-0.4796,7.9392-0.7493c2.6354-0.2996,5.2477-0.7423,7.8599-1.126
		c5.1962-0.947,10.3528-2.0049,15.3948-3.4183c10.0968-2.7583,19.861-6.3979,29.0699-10.9448
		c9.2084-4.5458,17.8939-9.9081,25.9242-15.9498c8.0327-6.0409,15.4058-12.7596,22.0393-19.9905
		c6.6212-7.2455,12.4926-15.0114,17.5735-23.1165c10.1724-16.2158,17.1281-33.7817,20.96-51.4102
		c3.847-17.6389,4.5864-35.3352,2.7103-52.0918c-1.8647-16.7712-6.3441-32.5886-12.63-46.8427
		c-3.1171-7.1445-6.7936-13.8516-10.7454-20.1646c-3.9805-6.2959-8.2231-12.2356-12.8354-17.6409
		c-4.5876-5.4224-9.3933-10.4226-14.3541-14.9858c-5.0024-4.5198-10.1318-8.6133-15.3043-12.3231
		c-5.2314-3.629-10.4708-6.9087-15.7242-9.7694c-5.2827-2.8004-10.4784-5.3615-15.6748-7.4172
		c-0.4106-0.1698-0.8177-0.3223-1.2274-0.4874c14.0696,1.2218,27.9564,2.6647,41.6376,4.3179
		c37.2701,4.5901,73.053,10.7415,107.171,17.9823c34.1094,7.2737,66.6133,15.4721,97.2087,24.7588
		c1.9182,0.5609,3.8308,1.1201,5.7375,1.6777l2.8555,0.8368l2.8247,0.9045c3.7612,1.204,7.4995,2.4008,11.2144,3.5901
		c3.7161,1.189,7.4087,2.3706,11.0781,3.5447c1.8311,0.5981,3.6724,1.1473,5.4788,1.7802c1.8074,0.6295,3.6091,1.2568,5.405,1.8822
		c7.1853,2.5009,14.2771,4.9692,21.2737,7.4044c6.9656,2.5212,13.7795,5.1641,20.531,7.6837
		c3.3723,1.27,6.7207,2.5309,10.0447,3.7827c1.0681,0.4325,2.1179,0.8575,3.1812,1.288c0.7041,0.4279,1.4092,0.8564,2.1362,1.3176
		c7.6431,4.8502,16.501,11.5966,25.3918,20.771c8.7629,9.259,17.6226,20.9514,24.4575,35.3745
		c6.8765,14.3475,11.8479,31.3291,13.0059,49.8723c0.6033,9.2579,0.1895,18.8825-1.3472,28.6049
		c-1.5205,9.697-4.2002,19.5988-7.9949,29.1159c-1.9995,4.7191-4.3047,9.3643-6.9612,13.8732
		c-2.7229,4.4689-5.7703,8.7984-9.1533,12.9268c-3.4038,4.1129-7.1912,7.9677-11.2522,11.5811
		c-4.0547,3.6239-8.4661,6.9222-13.1465,9.8728c-4.675,2.9592-9.6145,5.5867-14.7717,7.8284
		c-5.1736,2.2037-10.5601,4.0083-16.0928,5.3851c-5.5337,1.3656-11.2126,2.3401-16.9758,2.7678
		c-5.7612,0.4274-11.5918,0.3837-17.415-0.1459c-5.822-0.5292-11.5762-1.5183-17.1555-3.0425
		c-1.4114-0.3175-2.7766-0.797-4.1589-1.2047l-2.0667-0.6305l-2-0.7189l-1.9944-0.719l-1.9504-0.8176l-1.947-0.817l-1.8984-0.9128
		c-10.1206-4.8589-19.0466-11.7626-26.1855-19.9935c-7.158-8.222-12.5088-17.7606-15.855-27.7393
		c-3.3513-9.9811-4.7378-20.3988-4.1755-30.483c0.2727-5.0432,1.0122-10.0031,2.1606-14.8067l0.4243-1.801l0.5117-1.7724
		c0.3501-1.1743,0.6565-2.3746,1.0747-3.4929c0.3892-1.1373,0.77-2.2747,1.2405-3.372l0.6663-1.6596l0.7446-1.618
		c3.9824-8.6102,9.7322-16.1093,16.5498-21.954c6.8025-5.8708,14.5872-10.1515,22.5708-12.7913
		c7.9905-2.6505,16.1685-3.6686,23.9333-3.3273c3.8838,0.1884,7.6638,0.7128,11.2959,1.5027
		c1.824,0.3707,3.5869,0.8877,5.3367,1.3758c1.6921,0.61,3.3611,1.2116,5.0068,1.8048c6.4736,2.6933,12.0347,6.5252,16.5183,10.8557
		c4.4973,4.3338,7.925,9.1426,10.502,13.8906c0.5825,1.2206,1.1526,2.4149,1.71,3.5825c0.136,0.2939,0.2881,0.58,0.4092,0.8761
		c0.1094,0.3007,0.2183,0.5996,0.3267,0.8967c0.2173,0.5952,0.4321,1.1833,0.6443,1.7643c0.9534,2.2983,1.395,4.6236,1.9985,6.7844
		c0.2808,1.0859,0.3757,2.1747,0.5667,3.2167c0.1467,1.0477,0.377,2.0594,0.4431,3.0529c0.0608,0.9957,0.1196,1.9592,0.1765,2.8899
		c0.0288,0.4666,0.0571,0.925,0.085,1.3751c0.0137,0.2254,0.0273,0.4487,0.041,0.6699c-0.0083,0.2209-0.0166,0.4396-0.0249,0.6564
		c-0.0645,1.7401-0.124,3.3464-0.1785,4.8153c-0.2004,1.4594-0.3821,2.7822-0.5444,3.9647
		c-0.0852,0.5919-0.1479,1.1533-0.238,1.6723c-0.1235,0.512-0.2385,0.989-0.345,1.4305c-0.2129,0.8855-0.3918,1.6289-0.5354,2.2266
		c-0.2874,1.199-0.4343,1.8134-0.4343,1.8134s0.1948-0.6,0.5752-1.771c0.1899-0.5874,0.4265-1.3181,0.708-2.1884
		c0.1409-0.4363,0.293-0.9077,0.4563-1.4136c0.1299-0.5141,0.2351-1.0715,0.3655-1.6606c0.252-1.1835,0.5339-2.5076,0.8452-3.9683
		c0.1626-1.4879,0.3406-3.1152,0.5334-4.8779c0.0239-0.2211,0.0481-0.4443,0.0725-0.6697c0.0024-0.2261,0.0046-0.4543,0.0071-0.6846
		c0.0042-0.4613,0.0085-0.931,0.0129-1.4092c0.0081-0.9589,0.0161-1.9516,0.0247-2.9775c0.0015-1.0273-0.1602-2.0775-0.2383-3.1692
		c-0.1223-1.0859-0.1487-2.2242-0.3616-3.3651c-0.4678-2.2708-0.7764-4.7297-1.6072-7.187
		c-0.1826-0.622-0.3674-1.2515-0.5544-1.8887c-0.094-0.319-0.1885-0.6398-0.2834-0.9626c-0.1072-0.3184-0.2451-0.6271-0.3674-0.9442
		c-0.5076-1.2646-1.0269-2.5582-1.5576-3.8804c-2.3918-5.1703-5.7126-10.5135-10.2732-15.4614
		c-4.5452-4.9415-10.3474-9.4661-17.2944-12.8143c-1.7744-0.7505-3.5742-1.5118-5.3987-2.2835
		c-1.8594-0.6319-3.7429-1.2905-5.7017-1.7996c-3.9006-1.0665-8.001-1.8531-12.2542-2.2732
		c-8.5024-0.8051-17.6165-0.1265-26.6689,2.4268c-9.0437,2.5419-18.0173,6.9668-26.0122,13.3255
		c-8.0068,6.3271-14.9492,14.6727-19.8909,24.4562l-0.9216,1.8408l-0.8374,1.8882c-0.5825,1.2529-1.0708,2.5482-1.5635,3.8483
		c-0.5271,1.2973-0.9131,2.6074-1.3501,3.921l-0.6367,1.9769l-0.5457,2.0123c-1.4656,5.3733-2.4729,10.9645-2.9451,16.6828
		c-0.9636,11.4346,0.302,23.3748,3.8882,34.8887c3.5784,11.5111,9.5149,22.5977,17.6313,32.2184
		c8.0903,9.6284,18.3582,17.7749,30.0564,23.5044l2.196,1.0721l2.2478,0.9672l2.2563,0.9592l2.3027,0.851l2.3088,0.8409
		l2.3193,0.725c1.552,0.4689,3.0872,1.005,4.6738,1.3759c6.2754,1.7363,12.7644,2.8717,19.3342,3.4694
		c6.5713,0.5985,13.1543,0.6331,19.6506,0.1221c6.4983-0.511,12.8943-1.6428,19.1121-3.2308
		c6.2168-1.5991,12.2546-3.691,18.0361-6.2363c5.7651-2.5833,11.2693-5.6066,16.4585-9.0048
		c5.1951-3.3894,10.0703-7.1698,14.5334-11.3066c4.4692-4.1261,8.6086-8.524,12.3047-13.1968
		c3.6758-4.688,6.9556-9.5928,9.8506-14.6375c2.8289-5.0845,5.2456-10.3036,7.3008-15.5817
		c7.7583-21.1815,10.0706-42.7948,7.9868-62.5175c-2.0295-19.7464-8.1418-37.4537-16.0979-52.1169
		c-7.9209-14.744-17.8054-26.3629-27.3848-35.3503c-6.2917-5.7671-12.4812-10.4296-18.2563-14.1964
		c4.5813,1.8597,9.1313,3.7067,13.6133,5.526c6.2251,2.7112,12.3528,5.38,18.3809,8.0056c3.0144,1.314,6.0042,2.6171,8.9688,3.9094
		c2.9673,1.2871,5.845,2.7026,8.7339,4.0295c46.2122,21.2743,84.7017,42.4064,115.4568,60.806
		c15.47,9.065,28.7678,17.8322,40.4409,25.2086c5.7559,3.8091,11.0112,7.4141,15.8501,10.6626
		c2.4155,1.6302,4.7183,3.1841,6.9063,4.6608c2.1851,1.481,4.2776,2.854,6.1812,4.2512
		c15.3738,10.9827,23.4475,16.7504,23.4475,16.7504S2505.657,977.2208,2490.5693,965.8387z"/>
	<path d="M428.4832,713.1046c-1.5957-0.2327-3.1618-0.5416-4.723-0.8026c-1.561-0.2701-3.1064-0.5375-4.6357-0.8022
		c-1.528-0.2761-3.0585-0.4837-4.5325-0.8506c-2.9735-0.6599-5.8821-1.3052-8.7231-1.9357
		c-0.7101-0.1631-1.4248-0.2982-2.1204-0.481c-0.6938-0.1898-1.3834-0.3784-2.0687-0.5657
		c-1.3734-0.3738-2.7296-0.7429-4.0684-1.1072c-2.6732-0.7489-5.3245-1.3662-7.8072-2.2385
		c-5.0052-1.6353-9.7955-3.0676-14.1199-4.8131c-2.1894-0.8211-4.303-1.6137-6.3382-2.377
		c-2.0139-0.8161-3.9147-1.6819-5.7632-2.4668c-1.8474-0.7951-3.6151-1.5558-5.3005-2.2813
		c-1.6879-0.7275-3.2202-1.5571-4.7164-2.2676c-2.963-1.472-5.6447-2.7199-7.9117-3.9036
		c-2.2412-1.2355-4.1381-2.2811-5.6711-3.1262c-3.0873-1.6843-4.7093-2.5692-4.7093-2.5692s1.4416,1.1536,4.1857,3.3493
		c1.3834,1.0955,3.095,2.4509,5.1174,4.0524c2.0635,1.5476,4.5273,3.2133,7.2749,5.1528c1.3884,0.9443,2.814,2.0202,4.3973,3.0054
		c1.5889,0.9822,3.2552,2.0123,4.9968,3.0889c1.7513,1.0652,3.5601,2.2224,5.4882,3.3397c1.9597,1.0624,3.9948,2.1657,6.1028,3.3085
		c4.1846,2.3853,8.868,4.4915,13.8174,6.825c2.4551,1.2215,5.0895,2.1932,7.7608,3.301c1.3413,0.5424,2.7001,1.0919,4.0759,1.6483
		c0.6893,0.2776,1.3829,0.5571,2.0807,0.8382c0.7005,0.2739,1.4208,0.4999,2.1376,0.7543c2.8826,0.9885,5.8339,2.0005,8.851,3.035
		c1.5035,0.5505,3.0673,0.9417,4.6329,1.4011c1.5709,0.4457,3.1581,0.8961,4.7616,1.3511c1.6075,0.4434,3.2242,0.9342,4.875,1.348
		c1.6599,0.3773,3.3358,0.7583,5.0274,1.1428c3.3916,0.7378,6.8314,1.6309,10.3961,2.1597c1.7783,0.302,3.5718,0.6066,5.3801,0.9137
		c1.8131,0.2781,3.6308,0.6751,5.4883,0.8464c3.7133,0.4233,7.4852,0.8533,11.3129,1.2897
		c3.8524,0.2308,7.7607,0.465,11.7224,0.7024c0.9921,0.0752,1.9882,0.0875,2.988,0.0851c1.0002,0.0055,2.0038,0.011,3.0106,0.0166
		c2.016,0.0071,4.0449,0.0144,6.0866,0.0217c16.3392-0.2349,33.5181-2.2392,50.9599-6.4433
		c17.4033-4.2896,35.1149-10.9294,51.767-20.9014c16.6409-9.962,31.2446-22.8463,42.2199-38.0276
		c10.8851-15.2311,17.7185-32.2477,20.6682-49.0826c0.3121-2.1187,0.6897-4.2073,0.9224-6.3065
		c0.1796-2.1055,0.358-4.1974,0.5352-6.2755c0.0907-2.0853,0.0892-4.1647,0.1276-6.2193l0.0183-1.5386l-0.0823-1.538
		c-0.0573-1.0219-0.1143-2.0401-0.1711-3.0546c-0.0677-1.0134-0.0975-2.0222-0.2003-3.0253
		c-0.1302-1.0016-0.2601-1.9996-0.3893-2.9938c-0.2779-1.9846-0.4654-3.957-0.9324-5.884c-0.4215-1.9297-0.779-3.8502-1.2594-5.7275
		c-0.5526-1.8594-1.1006-3.7036-1.6441-5.5322c-0.2458-0.9186-0.6066-1.8008-0.949-2.6824
		c-0.3429-0.8801-0.6843-1.7563-1.0241-2.6287c-0.3419-0.8689-0.6823-1.7339-1.0211-2.595
		c-0.3972-0.8489-0.7927-1.694-1.1862-2.5352c-1.637-3.3261-3.4029-6.4954-5.3946-9.4104c-1.9605-2.9333-4.049-5.6755-6.2629-8.1927
		c-2.1762-2.5496-4.5023-4.8503-6.8311-7.0085c-9.4156-8.5648-19.5978-14.0671-28.9405-17.2819
		c-9.3683-3.2332-17.8953-4.1786-24.7256-4.0387c-6.8563,0.1528-12.0294,1.3292-15.4269,2.2864
		c-1.709,0.4622-2.9736,0.9282-3.8225,1.2371c-0.8478,0.3044-1.2822,0.4603-1.2822,0.4603s0.4558-0.0756,1.3454-0.223
		c0.8862-0.1532,2.2-0.3889,3.9396-0.5522c3.4587-0.3641,8.6122-0.6531,15.0607,0.2029c6.4302,0.8622,14.1523,2.9197,22.2368,7.0078
		c4.0367,2.0398,8.1528,4.5789,12.1933,7.6549c4.0392,3.0767,7.9617,6.7425,11.6315,10.9171c1.8057,2.1137,3.59,4.3208,5.2081,6.71
		c1.6575,2.3586,3.1736,4.8756,4.5588,7.5049c1.418,2.6136,2.6025,5.3944,3.676,8.2441c0.2544,0.7167,0.5099,1.4368,0.7667,2.1601
		c0.2112,0.7505,0.4235,1.5044,0.6366,2.2617c0.2151,0.7538,0.4312,1.511,0.6481,2.2715c0.2186,0.7587,0.4572,1.5133,0.5842,2.3065
		c0.3146,1.5618,0.6318,3.1368,0.9517,4.725c0.259,1.5985,0.4051,3.2336,0.6241,4.8597c0.2642,1.6193,0.262,3.2943,0.3595,4.96
		c0.0424,0.8331,0.085,1.6693,0.1276,2.5086c0.0187,0.8409-0.0328,1.6912-0.0435,2.5392c-0.0183,0.8479-0.0367,1.6989-0.0551,2.553
		l-0.024,1.281l-0.1202,1.2875c-0.1713,1.7183-0.2901,3.446-0.4885,5.1795c-0.272,1.7274-0.5459,3.4664-0.8215,5.2166
		c-0.3154,1.7426-0.7645,3.4791-1.1331,5.2321c-3.3998,13.9465-9.9065,27.9588-19.3896,40.2836
		c-4.7336,6.0917-10.3406,11.9241-16.4807,17.2292c-6.1581,5.3206-12.9308,10.173-20.184,14.5217
		c-14.5195,8.7004-30.199,14.9763-45.8605,19.42c-15.7015,4.3655-31.3833,7.046-46.462,8.2469
		c-1.889,0.1192-3.7662,0.2377-5.6313,0.3554c-0.9337,0.0609-1.8644,0.1215-2.7921,0.1819
		c-0.9279,0.0695-1.8534,0.1255-2.7768,0.1196c-3.6993,0.0585-7.3489,0.1161-10.9462,0.173
		c-3.6031-0.114-7.1537-0.2263-10.6493-0.3368c-1.7556-0.007-3.4777-0.2372-5.1988-0.3464
		c-1.7205-0.1346-3.4267-0.2681-5.1185-0.4005c-3.3992-0.1827-6.6933-0.7226-9.9565-1.1024
		C431.7004,713.5045,430.0841,713.3036,428.4832,713.1046z"/>
	<path d="M1165.2177,1067.86c-6.0787-15.774-13.6782-30.1765-22.1941-43.0386c-8.5303-12.858-17.9148-24.2175-27.6936-34.0209
		c-4.8822-4.9099-9.843-9.4518-14.8164-13.653c-4.9771-4.1986-10.0067-8.0048-14.9685-11.5253
		c-19.9236-14.0452-39.1979-22.6785-55.2838-28.1601c-8.0593-2.7488-15.3594-4.7166-21.7264-6.1979
		c-6.3762-1.4531-11.8229-2.4072-16.2341-3.0814c-4.4158-0.6476-7.7903-1.0659-10.0664-1.2748
		c-2.2724-0.2299-3.4365-0.3477-3.4365-0.3477s1.1555,0.1835,3.4109,0.5419c2.2573,0.3352,5.601,0.9386,9.9601,1.8184
		c4.3543,0.9062,9.7179,2.1395,15.9658,3.9028c6.2386,1.791,13.3649,4.0997,21.185,7.1962
		c15.6135,6.1757,34.1276,15.5359,52.9524,30.046c4.6888,3.6368,9.426,7.5426,14.0928,11.8189
		c4.6631,4.2789,9.2954,8.8766,13.8336,13.8146c9.0911,9.8595,17.7228,21.1643,25.4694,33.8073
		c7.7333,12.6473,14.5286,26.6881,19.8367,41.9213c5.303,15.2311,9.1393,31.6331,10.8988,48.8656
		c1.7678,17.2251,1.61,35.2368-1.1659,53.334c-2.8529,18.0736-8.3392,36.1836-17.2821,53.1553
		c-2.1777,4.2673-4.6445,8.4137-7.1997,12.5302c-1.3511,2.0125-2.6117,4.0922-4.0502,6.0615l-2.1064,2.9935l-2.2101,2.9308
		c-5.903,7.8262-12.635,15.1451-19.9509,21.9579c-14.6941,13.5436-32.1041,24.7874-51.3538,32.5481
		c-19.2104,7.8091-40.1889,12.1885-61.58,12.3601c-21.3173,0.2122-43.0339-3.7023-62.6072-12.9027
		c-19.5667-9.1381-36.5635-23.1981-49.3495-39.9923c-3.23-4.1814-6.0943-8.6029-8.8141-13.0798
		c-2.6256-4.5334-5.04-9.1661-7.1355-13.921c-2.0405-4.7755-3.9402-9.6069-5.4023-14.564
		c-0.8196-2.4509-1.4022-4.9651-2.0831-7.4463c-0.3168-1.2466-0.5614-2.5089-0.8471-3.7605
		c-0.2759-1.2537-0.5708-2.5028-0.7672-3.7687l-0.6647-3.7802c-0.2123-1.2601-0.3427-2.5298-0.5198-3.7921
		c-0.3859-2.5229-0.5333-5.0608-0.7718-7.5862c-0.2983-5.0568-0.4466-10.1089-0.1433-15.1074
		c0.1891-5.009,0.8344-9.948,1.6358-14.8215c0.5054-2.4132,0.8869-4.8546,1.5468-7.2147c0.3056-1.1863,0.5839-2.3801,0.9067-3.5581
		l1.0807-3.4924l0.5384-1.7438l0.6322-1.7042l1.2549-3.4059l1.4366-3.326l0.7152-1.6614c0.252-0.5471,0.5336-1.0803,0.7982-1.621
		l1.6047-3.2322c0.5645-1.0604,1.1769-2.0939,1.7599-3.1415c1.1254-2.1207,2.4948-4.0889,3.7532-6.1178
		c5.3034-7.9458,11.6447-15.0758,18.645-21.2825c28.1042-24.9323,68.1382-32.1608,99.6543-21.4675
		c7.8843,2.6587,15.2227,6.3796,21.7349,11.114c6.5248,4.7053,12.2606,10.2791,17.08,16.3954
		c9.6627,12.2433,15.5853,26.6062,17.7156,40.8202c1.0583,7.0956,1.2697,14.2402,0.5127,20.9884
		c-0.8011,6.7704-2.551,13.2535-5.0376,19.2438c-2.4993,5.9797-5.6592,11.5364-9.4968,16.3387
		c-3.8064,4.8188-8.0538,9.0656-12.6315,12.6c-1.144,0.8805-2.3521,1.6536-3.5099,2.4785
		c-0.5889,0.3971-1.1531,0.8302-1.7556,1.1945c-0.6105,0.3514-1.2183,0.7013-1.8234,1.0497
		c-0.6054,0.3495-1.2081,0.6975-1.808,1.0438c-0.6008,0.3455-1.1889,0.7108-1.822,0.9784
		c-1.2443,0.5834-2.4771,1.1614-3.6979,1.7339l-0.915,0.429l-0.9431,0.3457c-0.6276,0.2307-1.2521,0.4602-1.8736,0.6886
		c-0.6221,0.2294-1.2411,0.4576-1.857,0.6847c-0.309,0.111-0.6137,0.2336-0.9241,0.3346l-0.943,0.2557
		c-2.5106,0.6718-4.9576,1.4291-7.4314,1.7946c-2.446,0.5435-4.8912,0.6935-7.2725,0.9696
		c-1.1936,0.0847-2.3785,0.0789-3.5492,0.1237c-0.5859,0.0167-1.1684,0.0333-1.7474,0.0499
		c-0.5786-0.0038-1.1523-0.052-1.7238-0.0752c-1.1441-0.0574-2.2743-0.1139-3.3904-0.1698
		c-1.1096-0.1221-2.202-0.2813-3.2844-0.4163c-0.5412-0.0699-1.0789-0.1394-1.6131-0.2085
		c-0.5349-0.0673-1.051-0.2109-1.5726-0.3113c-1.0405-0.2203-2.0671-0.4377-3.0794-0.6522
		c-8.0634-1.9484-14.7617-5.3627-20.0151-9.027c-0.6487-0.4739-1.2849-0.9387-1.9085-1.3944
		c-0.3124-0.2281-0.6217-0.4539-0.9279-0.6774c-0.298-0.2334-0.5689-0.4929-0.8505-0.7341
		c-1.1078-0.9856-2.1958-1.9072-3.194-2.8315c-1.8604-1.9812-3.6259-3.7255-4.9141-5.5295
		c-0.6692-0.8796-1.3539-1.6722-1.8989-2.4801c-0.5267-0.8215-1.0175-1.587-1.4717-2.2958
		c-0.4515-0.7114-0.8821-1.3585-1.249-1.9633c-0.324-0.6287-0.6165-1.1964-0.8773-1.7025
		c-1.0469-2.0289-1.5832-3.0682-1.5832-3.0682s0.4769,1.0688,1.4077,3.1554c0.2337,0.5228,0.4958,1.1094,0.7862,1.7588
		c0.334,0.6267,0.7297,1.2992,1.1447,2.0398c0.4193,0.7395,0.8723,1.5383,1.3583,2.3958c0.5063,0.8455,1.1517,1.6804,1.782,2.6078
		c1.2106,1.8992,2.8999,3.7598,4.6969,5.8818c0.9664,0.9946,2.0258,1.9926,3.11,3.0605c0.2756,0.262,0.541,0.5424,0.8336,0.7971
		c0.3011,0.2449,0.6054,0.4923,0.9127,0.7423c0.616,0.5002,1.2443,1.0107,1.8849,1.5311
		c5.2017,4.0383,11.9534,7.9247,20.2603,10.3639c1.0452,0.2748,2.105,0.5535,3.1793,0.8359
		c0.5398,0.131,1.0754,0.3054,1.6298,0.4032c0.5544,0.0994,1.1125,0.1993,1.6743,0.3c1.1248,0.1959,2.2634,0.4158,3.4224,0.5978
		c1.1678,0.1144,2.3503,0.2303,3.5474,0.3477c0.5995,0.0525,1.2023,0.1298,1.8105,0.1622c0.6092,0.0117,1.222,0.0237,1.8386,0.0355
		c1.2333,0.0116,2.4849,0.0726,3.7484,0.0415c2.5203-0.1689,5.1204-0.2181,7.7344-0.6698c2.6447-0.2744,5.2678-0.9481,7.9713-1.5487
		l1.0159-0.2296c0.335-0.0925,0.6646-0.2068,0.9986-0.3097c0.6667-0.2119,1.3367-0.4249,2.0101-0.6389
		c0.674-0.215,1.3513-0.431,2.0319-0.6481l1.0241-0.3275l0.9973-0.4124c1.3336-0.5555,2.6801-1.1163,4.0393-1.6825
		c0.6915-0.2612,1.3385-0.6211,1.9991-0.9623c0.66-0.3434,1.3232-0.6884,1.9894-1.0348c0.6666-0.3478,1.3362-0.697,2.0089-1.048
		c0.6648-0.3647,1.2916-0.7994,1.9441-1.1996c1.2845-0.8311,2.6223-1.6158,3.8972-2.5129
		c5.1011-3.6014,9.8998-8.0018,14.2563-13.0807c4.3873-5.0621,8.0951-10.9838,11.1016-17.4492
		c2.9934-6.475,5.2087-13.5649,6.3802-21.0575c1.1277-7.5278,1.1792-15.2732,0.2993-23.1683
		c-1.7834-15.7499-7.7634-31.8969-18.1301-45.9556c-5.1718-7.022-11.4269-13.5084-18.663-19.0704
		c-7.2104-5.5872-15.5131-10.1276-24.3887-13.4037c-8.8859-3.2831-18.3725-5.3134-28.0874-6.0787
		c-9.7169-0.7748-19.673-0.2882-29.5418,1.5316c-9.8703,1.7958-19.6791,4.8384-29.1022,9.1713
		c-9.3749,4.4147-18.3064,10.093-26.4907,16.8992c-8.1088,6.8872-15.4927,14.8719-21.7275,23.8556
		c-1.4919,2.2897-3.0858,4.5269-4.4296,6.9313c-0.692,1.1892-1.4108,2.3662-2.08,3.5734c-0.6365,1.2258-1.274,2.4532-1.9123,3.6824
		c-0.3147,0.6171-0.6456,1.2267-0.9465,1.8517l-0.8605,1.8976c-0.5709,1.2678-1.1426,2.5375-1.7151,3.8088
		c-0.5054,1.3005-1.0116,2.6028-1.5184,3.9069l-0.7573,1.9595l-0.6561,1.9935c-0.4338,1.3315-0.868,2.6649-1.303,4.0001
		c-0.3931,1.3459-0.7378,2.7063-1.1075,4.0626c-0.7888,2.7039-1.2826,5.4738-1.8911,8.23
		c-1.0045,5.5436-1.8044,11.1598-2.1026,16.827c-0.4127,5.6646-0.3297,11.3658-0.0563,17.0731
		c0.2258,2.8464,0.3713,5.7106,0.7644,8.5519c0.1808,1.4222,0.3176,2.8534,0.5386,4.2728l0.6982,4.2583
		c0.2101,1.4259,0.5211,2.8334,0.8156,4.246c0.3043,1.4103,0.5701,2.8317,0.9105,4.2369c0.7283,2.7987,1.3683,5.6294,2.2562,8.3983
		c1.5977,5.5897,3.6776,11.0614,5.9452,16.4749c2.324,5.3962,5.0074,10.653,7.9415,15.7913
		c3.0275,5.0803,6.239,10.0864,9.8528,14.828c14.3276,19.0342,33.4381,34.9773,55.7279,45.3934l4.1913,1.902l4.2581,1.715
		l2.1314,0.8435l2.159,0.7577c1.4415,0.4956,2.8718,1.0258,4.3207,1.488c5.8027,1.8293,11.6688,3.3607,17.5792,4.5299
		c5.9158,1.1104,11.8495,2.0365,17.7944,2.4899c2.967,0.3208,5.9401,0.3781,8.902,0.5612c2.9633,0.0209,5.9245,0.1642,8.8733,0.0543
		c23.588-0.3232,46.7126-5.3608,67.7178-14.1732c21.0469-8.7584,39.9789-21.3539,55.8274-36.4385
		c7.8878-7.5778,15.0923-15.6974,21.374-24.342l2.3478-3.2385l2.2355-3.303c1.5215-2.176,2.8599-4.4639,4.2825-6.6844
		c2.6989-4.5336,5.2864-9.0992,7.5632-13.7877c2.3539-4.6494,4.3745-9.4229,6.3059-14.1873
		c1.8301-4.8049,3.5432-9.6272,4.9489-14.499c2.8658-9.7258,4.8932-19.5199,6.166-29.2383
		c2.4933-19.4537,2.1263-38.5366-0.2563-56.6276C1175.8663,1100.7764,1171.2892,1083.6219,1165.2177,1067.86z"/>
</g>
</svg>
